<svg xmlns="http://www.w3.org/2000/svg" height="1024" preserveAspectRatio="none" style="display: block;" version="1.1" viewBox="0 0 2048 2048" width="1024">

<path d="M 1104.01 420.165 C 1139 315.438 1210.24 138.877 1293.23 331.427 C 1331.77 420.859 1337.78 479.873 1336.98 575.624 C 1357.32 604.856 1332.46 619.585 1340 646.17 C 1345.46 665.426 1369.79 667.192 1374.65 693.832 C 1379.6 720.913 1362.35 727.058 1362.87 751.89 C 1363.34 774.209 1381.76 781.44 1383.34 804.365 C 1385.01 828.596 1369.18 844.142 1354.23 860.79 C 1346.26 869.597 1338.38 878.491 1330.6 887.471 C 1334.24 912.983 1337.85 936.868 1339.84 962.655 C 1442.38 928.939 1465.98 854.598 1495.61 763.151 C 1475.06 748.105 1466.71 729.549 1483.31 707.159 C 1478.41 695.67 1473.36 685.129 1466.36 674.603 C 1456.78 660.001 1438.08 647.837 1435.51 629.505 C 1433.91 618.108 1439.1 605.04 1448.74 598.472 C 1462.35 589.199 1475.5 591.154 1487.6 601.662 C 1488.58 594.127 1489.81 585.16 1492 577.933 C 1497.08 560.621 1509.06 546.162 1525.13 537.95 C 1565.05 517.303 1642.7 534 1661.15 578.357 C 1678.23 619.433 1661.59 693.554 1631.57 726.481 C 1631.81 726.218 1633.47 745.385 1630.88 747.376 C 1624.94 760.512 1616.57 765.311 1604.36 771.226 C 1594.54 930.399 1499.92 1046.09 1345.51 1086.1 C 1345.35 1088.09 1345.77 1093.43 1345.89 1095.69 C 1363.59 1104.27 1380.66 1113.69 1394.56 1127.86 C 1423.41 1157.25 1437.83 1193.9 1438.04 1234.67 C 1438.34 1275.25 1422.3 1314.24 1393.53 1342.86 C 1344.48 1391.92 1297.55 1387.01 1235.58 1387.02 C 1249.89 1407.44 1266.85 1425.86 1286.01 1441.8 C 1314.21 1465.18 1351.9 1484.14 1389.2 1484.84 C 1400.84 1485.06 1423.63 1482.4 1435.86 1481.27 C 1439.23 1472.98 1443.64 1465.75 1450.22 1459.59 C 1459.52 1450.86 1472.03 1446.39 1484.75 1447.25 C 1501.73 1448.38 1512.52 1456.75 1523.1 1468.78 C 1551.38 1474.04 1582.18 1475.82 1611.87 1479.75 C 1642.62 1483.82 1678.77 1483.86 1682.9 1525.68 C 1684.09 1537.71 1679.07 1556.57 1676.79 1569 L 1667.03 1623.6 L 1657.19 1679.66 C 1655.56 1688.88 1653.21 1704.65 1650.59 1713.05 C 1647.79 1721.97 1643.09 1730.18 1636.81 1737.11 C 1606.19 1770.64 1547.94 1762.5 1528.76 1721.51 C 1517.16 1696.73 1524.37 1660.22 1523.86 1632.22 L 1501.32 1630.83 C 1475.84 1663.76 1422.68 1655.72 1415.54 1612.2 C 1342.46 1620.59 1285.49 1611.45 1222.8 1569.83 C 1166.86 1530.25 1133.87 1485.75 1092.72 1431.87 C 1083.2 1419.39 1065.42 1399.36 1057.73 1387.01 L 923.341 1387.03 C 909.416 1412.54 822.808 1525.49 822.261 1539.23 C 828.463 1553.53 861.854 1568.62 876.825 1576.05 C 882.674 1572.99 889.745 1566.73 895.669 1564.45 C 908.056 1559.63 921.898 1560.23 933.822 1566.1 C 946.581 1572.52 953.698 1582.85 957.922 1596.08 C 981.623 1605.54 1006.52 1613.11 1030.39 1622.29 C 1048.83 1629.38 1073.27 1635.57 1085.96 1651.83 C 1104.53 1675.64 1089.73 1703.53 1080.47 1727.87 L 1057.93 1787 C 1048.39 1812.05 1035.19 1859.84 1014.26 1875.01 C 999.623 1885.56 981.363 1889.77 963.587 1886.71 C 946.378 1883.56 931.116 1873.72 921.143 1859.35 C 899.604 1827.98 915.747 1789.7 922.212 1753.29 L 896.4 1743.88 C 869.466 1764.79 833.538 1753.81 822.6 1721.14 C 819.66 1712.36 820.803 1703.05 821.372 1693.92 C 802.768 1681.35 770.757 1666.78 750.95 1654.92 C 671.094 1607.09 655.069 1526.92 712.516 1453.09 C 724.069 1438.24 747.076 1403.79 758.226 1386.09 C 719.416 1381.55 682.191 1363.95 656.793 1333.79 C 630.623 1302.82 617.953 1262.65 621.616 1222.27 C 626.249 1169.67 655.188 1125.97 701.067 1101.33 C 704.838 1099.31 711.806 1096.32 714.761 1093.83 C 715.66 1090.65 715.362 1090.74 714.219 1087.55 C 708.727 1083.82 698.76 1081.92 692.185 1079.4 C 602.018 1044.84 518.176 1042.37 442.227 1112.23 C 456.481 1133.03 456.182 1149.53 436.122 1165.99 C 437.359 1175.18 441.9 1191.13 446.348 1199.4 C 454.478 1214.22 468.998 1228.65 466.64 1247 C 464.047 1264.88 447.213 1276.68 429.471 1273 C 418.154 1270.65 412.829 1264.78 406.517 1255.91 C 397.755 1274.29 388.916 1296.44 371.578 1308.54 C 331.694 1336.37 267.073 1311.1 242.035 1273.67 C 222.136 1243.92 229.041 1222.47 240.955 1191.82 C 254.594 1156.74 267.641 1132.49 300.123 1111.3 C 298.553 1082.87 310.104 1069.49 339.131 1068.75 L 339.493 1068.04 C 339.699 1067.65 339.904 1067.26 340.11 1066.87 C 397.52 969.913 521.142 926.669 629.416 940.383 C 661.356 944.428 691.158 953.085 721.868 958.625 C 725.087 934.763 726.665 912.726 730.705 888.092 C 723.223 880.732 715.194 870.525 707.69 862.52 C 687.043 840.493 666.731 818.868 682.191 786.357 C 688.191 774.976 697.128 765.65 697.035 751.941 C 696.866 727.062 676.714 713.271 687.183 686.514 C 693.641 670.007 705.162 666.721 715.189 653.748 C 727.283 638.101 717.738 621.428 713.966 605.182 C 711.379 593.091 717.529 581.591 724.022 572.638 C 724.994 553.816 723.81 533.573 724.885 513.437 C 728.13 447.922 744.295 383.694 772.449 324.447 C 785.823 295.861 807.789 256.238 838.568 245.135 C 846.899 244.318 856.268 244.733 863.402 249.154 C 906.932 276.128 944.165 374.556 958.655 419.944 C 1009.11 399.58 1053.2 399.499 1104.01 420.165 z" fill="rgb(30,26,53)" transform="translate(0,0)"></path>
<path d="M 718.064 1096.92 C 717.116 1013.66 727.368 895.27 749.098 815.351 C 756.101 790.001 764.354 765.013 773.828 740.48 C 786.902 705.856 797.094 685.182 794.827 647.719 C 794.034 634.6 815.6 628.377 826.311 624.012 C 860.567 610.053 850.237 572.227 878.402 553.805 C 883.897 550.092 893.384 545.188 900.027 544.911 C 949.974 542.826 998.597 584.598 1047.98 575.801 C 1085.68 569.085 1126.35 541.311 1166.48 545.561 C 1179.72 546.962 1197.55 563.651 1202.44 576.058 C 1207.89 590.971 1207.38 596.223 1217.05 610.784 C 1218.2 611.615 1218.86 612.183 1219.94 613.113 C 1220.97 614.067 1221.37 614.33 1222.11 615.368 C 1237.05 627.858 1246.63 626.561 1258.97 636.338 C 1270.85 645.764 1263.16 675.798 1269.26 693.247 C 1273.66 706.393 1278.38 720.058 1283.74 732.852 C 1333.13 850.755 1341.54 970.987 1342.72 1097.3 C 1381.16 1116.06 1406.88 1136.32 1423.94 1177.1 C 1439.51 1214.6 1439.26 1256.81 1423.23 1294.12 C 1408.02 1329.9 1379.34 1358.27 1343.4 1373.1 C 1329.02 1379.08 1313.77 1382.69 1298.23 1383.81 C 1275.86 1385.36 1239.16 1383.94 1215.64 1383.93 L 1052.57 1384.16 L 869.221 1383.95 C 831.503 1383.98 792.112 1384.84 754.541 1382.73 C 741.589 1382 725.515 1376.72 713.627 1371.69 C 677.452 1356.69 648.918 1327.64 634.562 1291.21 C 619.968 1253.64 620.619 1211.86 636.376 1174.76 C 652.242 1138.07 680.997 1111.43 718.064 1096.92 z" fill="rgb(167,139,250)" transform="translate(0,0)"></path>
<path d="M 1079.2 643.364 C 1073.36 641.294 1065.81 636.522 1063.5 630.736 C 1057.41 613.959 1079.76 605.7 1091.57 601.206 C 1136.38 584.144 1172.14 592.836 1213.71 612.154 C 1215.53 613.229 1216.5 613.8 1218.46 614.647 C 1223.11 625.199 1221.76 641.3 1209.39 643.583 C 1198.74 645.551 1178.12 633.474 1167.41 630.336 C 1154.51 626.545 1140.97 625.463 1127.63 627.157 C 1108.46 629.591 1096.77 638.119 1079.2 643.364 z" fill="rgb(30,26,53)" transform="translate(0,0)"></path>
<path d="M 1217.05 610.784 C 1218.2 611.615 1218.86 612.183 1219.94 613.113 L 1219.72 614.072 L 1218.46 614.647 C 1216.5 613.8 1215.53 613.229 1213.71 612.154 L 1217.05 610.784 z" fill="rgb(124,58,237)" transform="translate(0,0)"></path>
<path d="M 825.577 863.035 L 1113.09 863.052 C 1154.8 863.088 1203.34 861.935 1244.38 863.384 C 1235.33 923.837 1209.21 975.673 1159.07 1012.52 C 1115.68 1044.73 1061.4 1058.71 1007.85 1051.44 C 963.41 1045.67 924.635 1026.34 891.833 996.168 C 853.771 958.289 831.454 917.35 825.577 863.035 z" fill="rgb(30,26,53)" transform="translate(0,0)"></path>
<path d="M 893.763 994.086 C 924.992 957.274 969.294 934.024 1017.33 929.238 C 1067.7 924.134 1118.02 939.473 1156.98 971.811 C 1164.77 978.339 1170.99 984.545 1178.06 991.743 C 1141.84 1029.58 1089.61 1049.35 1037.85 1049.76 C 1030.53 1049.81 1023.52 1049.32 1016.27 1049.23 C 969.724 1045.88 928.014 1025.08 893.763 994.086 z" fill="rgb(244,114,182)" transform="translate(0,0)"></path>
<path d="M 1133.39 657.061 C 1182.97 649.313 1229.46 683.213 1237.24 732.798 C 1245.03 782.382 1211.16 828.893 1161.58 836.708 C 1111.95 844.531 1065.39 810.623 1057.6 760.991 C 1049.81 711.359 1083.75 664.816 1133.39 657.061 z" fill="rgb(30,26,53)" transform="translate(0,0)"></path>
<path d="M 1134.27 659.913 C 1182.34 652.705 1227.16 685.804 1234.41 733.865 C 1241.66 781.925 1208.6 826.774 1160.55 834.07 C 1112.43 841.375 1067.51 808.266 1060.25 760.142 C 1052.99 712.019 1086.14 667.129 1134.27 659.913 z" fill="rgb(255,255,255)" transform="translate(0,0)"></path>
<path d="M 1147.91 697.426 C 1172.21 698.568 1193.76 714.618 1198.12 739.351 C 1200.74 754.174 1189.19 746.812 1182.14 757.3 C 1176.51 765.686 1186.1 773.879 1192.33 778.4 C 1182.2 792.06 1175.87 795.731 1159.92 799.924 C 1144.15 802.341 1129.85 800.439 1116.7 790.609 C 1105.69 782.442 1098.44 770.189 1096.58 756.615 C 1094.58 741.968 1098.76 727.15 1108.11 715.702 C 1119.11 702.46 1131.84 698.85 1147.91 697.426 z" fill="rgb(30,26,53)" transform="translate(0,0)"></path>
<path d="M 1161.19 731.057 C 1176.47 729.076 1178.6 741.321 1170.07 747.481 L 1168.88 748.366 C 1165.52 748.553 1161.04 749.117 1158.22 746.769 C 1156.51 745.339 1155.51 743.232 1155.49 741.005 C 1155.43 737.397 1157.55 734.624 1160 732.248 L 1161.19 731.057 z" fill="rgb(242,238,254)" transform="translate(0,0)"></path>
<path d="M 916.923 656.101 C 966.931 652.71 1010.24 690.454 1013.72 740.457 C 1017.19 790.46 979.525 833.834 929.528 837.396 C 879.41 840.966 835.908 803.185 832.423 753.062 C 828.938 702.938 866.793 659.501 916.923 656.101 z" fill="rgb(30,26,53)" transform="translate(0,0)"></path>
<path d="M 917.482 659.053 C 966.174 656.016 1008.05 693.166 1010.83 741.873 C 1013.61 790.58 976.242 832.257 927.521 834.784 C 879.159 837.294 837.856 800.26 835.094 751.912 C 832.332 703.564 869.149 662.068 917.482 659.053 z" fill="rgb(255,255,255)" transform="translate(0,0)"></path>
<path d="M 923.391 697.348 C 926.291 697.472 929.04 697.634 931.912 698.129 C 946.56 700.732 959.479 709.275 967.609 721.735 C 972.943 729.764 976.06 737.914 974.105 747.519 C 955.26 754.913 950.401 762.355 967.405 778.551 C 958.7 792.272 947.823 797.73 932.495 800.832 C 918.098 801.831 906.191 799.97 893.927 791.446 C 882.479 783.472 874.779 771.173 872.607 757.391 C 870.449 743.519 874.062 729.367 882.605 718.227 C 893.549 704.17 906.542 699.246 923.391 697.348 z" fill="rgb(30,26,53)" transform="translate(0,0)"></path>
<path d="M 939.5 730.754 C 944.337 729.699 949.154 732.614 950.463 737.388 C 951.773 742.163 949.118 747.127 944.419 748.688 C 941.15 749.774 937.549 748.966 935.057 746.589 C 932.564 744.211 931.588 740.652 932.519 737.336 C 933.449 734.019 936.135 731.488 939.5 730.754 z" fill="rgb(242,238,254)" transform="translate(0,0)"></path>
<path d="M 1031.61 1100.38 L 1034.9 1100.94 C 1039.31 1104.39 1065.32 1162.45 1069.86 1172.2 C 1084.43 1180.84 1101.38 1187.66 1116.41 1195.61 C 1123.03 1199.11 1139.08 1204.27 1139.64 1211.75 C 1135.77 1217.83 1079.82 1243.99 1069.29 1249.4 C 1059.48 1268.24 1044.67 1308.31 1034.11 1323.39 C 1033.65 1323.25 1033.18 1323.15 1032.73 1322.98 C 1024 1319.56 1000.9 1260.37 996 1249.28 C 987.787 1245.03 926.442 1215.61 925.052 1211.98 C 930.845 1204.27 983.748 1179.71 996.615 1172.84 C 1009.04 1150.78 1019.57 1123.29 1031.61 1100.38 z" fill="rgb(30,26,53)" transform="translate(0,0)"></path>
<path d="M 1032.9 1103.53 C 1037.62 1107.52 1063.21 1164.65 1067.43 1173.92 C 1089.02 1185.94 1120.28 1198.63 1139.53 1210.69 C 1118.2 1223.48 1089.14 1234.83 1067.01 1247.61 C 1058.06 1265.21 1042.63 1305.43 1032.92 1320.23 C 1026.27 1313.66 1003.54 1259.51 998.038 1247.31 C 975.564 1235.1 947.962 1223.31 926.877 1211.32 C 947.726 1199.37 976.444 1186.65 999.007 1174.6 C 1010.73 1152.49 1020.91 1125.15 1032.9 1103.53 z" fill="rgb(251,191,36)" transform="translate(0,0)"></path>
<path d="M 922.55 592.415 C 948.987 590.536 979.965 597.558 1001.77 613.238 C 1009.38 618.712 1010.03 632.813 1003.69 638.501 C 990.694 650.16 968.587 633.589 954.228 630.055 C 943.512 627.417 940.977 626.859 929.434 626.908 C 902.259 626.688 886.509 636.496 862.343 645.738 C 858.737 647.117 851.201 642.756 848.959 639.474 C 834.368 618.114 861.468 607.846 877.31 602.234 C 893.495 596.465 906.351 593.544 922.55 592.415 z" fill="rgb(30,26,53)" transform="translate(0,0)"></path>
<path d="M 956.169 424.268 C 986.857 410.265 1010.9 405.908 1044.97 408.312 C 1080.46 410.817 1103.61 422.275 1133.77 439.653 C 1143.61 446.85 1160.08 459.266 1171.82 462.613 C 1201.76 471.154 1221.78 462.497 1248.41 484.712 C 1274.8 506.724 1266.46 562.273 1308.21 563.061 C 1334.02 569.014 1346.55 582.607 1340.66 610.298 C 1337.76 623.914 1331.19 642.905 1340.85 654.729 C 1356.38 673.736 1378.03 680.254 1371.83 711.045 C 1369.29 723.631 1359.61 735.466 1360.03 748.801 C 1360.34 762.954 1363.77 770.033 1371.44 781.49 C 1391.57 811.544 1376.71 831.083 1356.36 853.994 C 1347.53 863.796 1338.78 873.671 1330.12 883.618 C 1322.31 840.378 1310.85 797.877 1295.87 756.569 C 1288.45 735.8 1279.9 715.931 1272.85 694.796 C 1266.63 676.182 1271.27 661.719 1267.23 643.688 C 1263.21 625.73 1232.78 625.959 1221.35 611.199 C 1210.37 600.547 1210.74 587.435 1204.44 574.597 C 1191.01 548.28 1172.32 538.427 1142.8 543.439 C 1105.33 549.801 1073.15 571.218 1035.79 574.083 C 982.429 578.175 902.319 505.256 861.377 567.794 C 852.249 581.738 852.028 599.553 839.558 611.507 C 828.536 623.964 800.176 626.947 794.556 639.181 C 788.151 653.124 794.079 675.447 787.848 693.375 C 777.678 722.636 766.51 750.919 756.499 780.166 C 743.903 816.746 738.824 847.552 731.553 884.59 C 724.29 876.125 716.848 867.815 709.233 859.666 C 694.005 843.206 678.481 829.389 679.879 804.81 C 681.176 782.016 698.936 774.3 699.951 753.186 C 701.111 729.055 682.888 719.245 687.935 693.805 C 692.744 669.563 716.042 665.409 722.326 646.152 C 731.405 618.327 699.216 599.928 729.873 570.944 C 745.562 561.166 757.439 565.376 772.365 557.273 C 788.274 548.637 792.35 530.623 796.844 514.461 C 804.56 486.712 825.061 471.171 853.22 467.797 C 867.162 466.126 881.266 467.485 894.606 461.98 C 908.828 456.111 920.562 446.11 933.299 437.567 C 941.213 432.258 947.8 428.682 956.169 424.268 z" fill="rgb(242,238,254)" transform="translate(0,0)"></path>
<path d="M 1476.29 1450.29 C 1497.73 1448.35 1508.64 1456.47 1521.69 1471.75 L 1601.24 1481.2 C 1606.72 1481.85 1612.55 1482.66 1617.99 1483.19 C 1644.12 1485.7 1671.83 1488.38 1679.11 1519.07 C 1681.87 1530.72 1679.35 1541.18 1677.2 1552.75 C 1667.58 1604.1 1659.52 1655.78 1649.27 1707.01 C 1644.17 1732.46 1625.75 1747.79 1601.45 1753.67 C 1597.14 1754.41 1592.19 1755.06 1587.81 1755.09 C 1570.79 1755.31 1554.42 1748.56 1542.5 1736.4 C 1521.9 1715.74 1524.16 1695.53 1525.9 1668.63 C 1526.72 1655.96 1527.03 1643.02 1526.98 1630.31 C 1518.02 1629.56 1509.06 1628.76 1500.11 1627.91 C 1471.42 1665.06 1412.45 1648.34 1419.54 1601.05 C 1425.32 1562.47 1432.17 1523.55 1438.79 1485.08 C 1442.15 1465.6 1457.31 1453.52 1476.29 1450.29 z" fill="rgb(251,191,36)" transform="translate(0,0)"></path>
<path d="M 909.56 1564.29 C 933.358 1561.98 948.856 1577.09 955.982 1598.31 C 977.259 1606.16 998.588 1613.86 1019.97 1621.42 C 1046.35 1630.78 1085.29 1639.36 1091.49 1670.96 C 1092.68 1677.14 1092.47 1683.5 1090.89 1689.58 C 1088.37 1699.62 1081.85 1715.76 1078.15 1725.76 C 1069.95 1748.02 1061.58 1770.22 1053.03 1792.34 C 1049.93 1800.39 1046.52 1808.94 1043.61 1817 C 1030.98 1851.95 1024.62 1876.41 984.242 1884.31 C 976.903 1885.18 971.4 1885.39 964.158 1884.1 C 947.586 1881.06 932.919 1871.51 923.427 1857.59 C 902.354 1826.6 918.8 1787.59 925.787 1751.8 C 915.654 1748.42 905.639 1744.69 895.76 1740.63 C 888.901 1746.27 885.013 1748.74 875.967 1750.63 C 864.247 1753.07 852.036 1750.58 842.214 1743.74 C 827.375 1733.54 818.219 1711.9 825.665 1694.74 C 842.429 1656.12 859.883 1616.46 879.688 1579.36 C 884.406 1570.52 900.187 1565.64 909.56 1564.29 z" fill="rgb(251,191,36)" transform="translate(0,0)"></path>
<path d="M 1061.07 1387.02 L 1232.21 1387.05 C 1245.82 1407.85 1267.33 1430.3 1286.39 1445.86 C 1314.57 1468.87 1350.57 1486.05 1387.38 1487.25 C 1402.35 1487.74 1420.6 1485.53 1435.72 1483.95 C 1430.81 1519.31 1424.04 1556.48 1417.97 1591.77 C 1416.99 1597.07 1416.34 1603.33 1415.64 1608.74 C 1389.96 1612.89 1363.84 1613.51 1337.99 1610.58 C 1230.04 1597.74 1168.86 1525.49 1107.54 1446.11 L 1061.07 1387.02 z" fill="rgb(167,139,250)" transform="translate(0,0)"></path>
<path d="M 761.26 1386.06 C 771.907 1387.72 803.628 1387.03 815.819 1387.02 L 920.2 1386.99 C 910.689 1402.93 898.013 1420.22 887.246 1435.59 C 872.617 1456.23 858.197 1477.01 843.989 1497.93 C 831.936 1515.32 805.68 1537.82 830.397 1553.62 C 845.665 1563.38 860.101 1570.9 876.399 1578.6 C 866.261 1596.56 856.148 1620.68 847.128 1639.92 L 823.648 1691.28 C 770.643 1661.81 702.652 1637.01 685.129 1571.8 C 664.88 1496.44 726.15 1446.7 760.456 1387.46 L 761.26 1386.06 z" fill="rgb(167,139,250)" transform="translate(0,0)"></path>
<path d="M 328.695 1072.25 C 336.991 1071.41 345.358 1071.55 353.619 1072.69 C 381.254 1076.37 452.737 1099.91 449.4 1141.4 C 448.644 1150.8 439.993 1159.16 432.392 1164.58 C 434.842 1175.69 438.923 1192 444.57 1201.93 C 453.122 1216.97 469.848 1233.69 462.276 1252.87 C 456.266 1268.1 438.013 1275.18 423.255 1268.21 C 414.25 1263.96 410.933 1257.18 407.648 1248.45 C 397.795 1264.47 394.821 1277.37 382.549 1294.93 C 377.594 1301 371.516 1306.06 364.648 1309.83 C 310.91 1339.17 211.933 1281.17 235.92 1213.83 C 249.298 1176.28 265.16 1132.54 303.177 1112.95 C 301.948 1091.25 305.109 1077.99 328.695 1072.25 z" fill="rgb(244,114,182)" transform="translate(0,0)"></path>
<path d="M 1557.44 532.353 C 1585.47 530.114 1620.92 538.482 1641.93 557.472 C 1666.91 580.273 1666.64 603.025 1663.5 634.177 C 1659.71 671.737 1654.01 696.644 1627.76 724.81 C 1632.51 739.094 1628.92 752.974 1616.25 761.647 C 1593.99 776.873 1558.9 775.354 1533.62 771.766 C 1502.2 766.13 1456.19 744.755 1487.27 707.428 C 1480.87 696.713 1476.75 684.91 1469.33 673.632 C 1459.04 657.983 1438.66 644.602 1438.23 625.113 C 1438.07 617.795 1441.52 609.021 1446.92 603.849 C 1452.6 598.399 1460.24 595.489 1468.11 595.783 C 1478.19 596.228 1484.12 601.883 1490.35 608.775 C 1494.2 563.692 1509.35 537.334 1557.44 532.353 z" fill="rgb(244,114,182)" transform="translate(0,0)"></path>
<path d="M 569.18 941.401 C 622.779 935.69 671.113 953.32 722.018 961.496 C 716.589 997.803 715.829 1046.72 715.027 1083.94 C 696.092 1078.78 675.266 1070.18 655.847 1064.46 C 598.581 1047.62 545.028 1047.86 490.789 1074.07 C 469.522 1084.48 457.709 1093.83 440.513 1109.89 C 414.153 1084.71 377.952 1071.53 341.998 1068.63 C 347.156 1059.33 355.869 1047.3 362.853 1039.34 C 418.133 976.284 487.965 948.28 569.18 941.401 z" fill="rgb(167,139,250)" transform="translate(0,0)"></path>
<path d="M 1498.67 763.546 C 1531.09 779.41 1566.67 779.695 1601.24 772.129 C 1599.72 802.586 1591.61 841.04 1582.09 869.863 C 1554.04 954.842 1500.82 1014.74 1421.59 1054.75 C 1394.79 1068.13 1374.54 1075.85 1345.29 1082.91 C 1345.25 1039.54 1344.05 1008.73 1340.28 965.321 C 1443.95 929.426 1469.16 859.106 1498.67 763.546 z" fill="rgb(167,139,250)" transform="translate(0,0)"></path>
<path d="M 728.157 568.624 C 726.203 565.352 726.936 537.866 727.04 532.299 C 728.518 448.467 750.446 363.642 793.797 291.796 C 808.569 267.312 838.802 230.855 867.442 254.872 C 901.167 283.154 948.435 380.529 955.951 421.188 C 946.339 426.345 936.894 431.807 927.631 437.565 C 919.886 416.633 875.884 294.784 840.397 303.476 C 823.682 307.571 790.772 367.544 785.332 384.415 C 763.817 436.893 752.732 503.02 753.109 559.262 C 742.272 561.85 737.969 563.221 728.157 568.624 z" fill="rgb(167,139,250)" transform="translate(0,0)"></path>
<path d="M 1106.66 421.086 C 1139.93 324.725 1207.51 143.433 1288.93 328.811 C 1328.31 418.461 1335.01 475.495 1333.92 571.639 C 1326.31 566.142 1316.02 560.652 1306.57 559.607 C 1307.33 554.336 1307.21 539.531 1307.15 533.744 C 1306.85 484.881 1297.52 436.494 1279.62 391.027 C 1272.77 373.978 1232.77 287.491 1210.19 303.481 C 1172.66 330.065 1151.51 393.988 1135.99 436.301 L 1135.37 437.964 C 1126.23 432.606 1115.52 426.667 1106.66 421.086 z" fill="rgb(167,139,250)" transform="translate(0,0)"></path>
<path d="M 1667.04 1204.67 C 1674.64 1208.59 1686.98 1225.27 1691.09 1233 C 1700.21 1250.14 1702.14 1270.21 1696.43 1288.77 C 1691.02 1306.1 1678.87 1320.54 1662.71 1328.84 C 1645.29 1337.81 1626.21 1338.47 1607.73 1332.64 C 1589.58 1325.95 1580.83 1317.57 1567.57 1304.32 C 1581.16 1289.6 1596.58 1275.09 1610.87 1260.91 L 1667.04 1204.67 z" fill="rgb(30,26,53)" transform="translate(0,0)"></path>
<path d="M 1667.39 1209.16 C 1673.84 1213.3 1683.51 1225.62 1687.34 1232.43 C 1696.76 1249.02 1699.14 1268.7 1693.95 1287.06 C 1689.01 1303.86 1677.53 1317.97 1662.09 1326.21 C 1644.96 1335.23 1625.88 1335.37 1607.72 1329.67 C 1591.97 1323.61 1583.17 1316.12 1571.74 1304.19 C 1583.47 1291.02 1600.38 1275.51 1613.12 1262.73 C 1630.57 1245.23 1649.21 1225.45 1667.39 1209.16 z" fill="rgb(52,211,153)" transform="translate(0,0)"></path>
<path d="M 425.099 339.997 C 428.697 342.293 454.7 369.559 459.554 374.874 C 477.47 394.493 501.193 415.813 518.072 435.613 C 505.698 449.381 496.737 455.787 479.342 462.348 C 469.009 465.528 457.016 466.774 446.295 465.262 C 429.449 462.864 414.268 453.815 404.144 440.14 C 393.762 426.091 389.353 408.508 391.879 391.224 C 395.209 368.428 407.144 353.289 425.099 339.997 z" fill="rgb(30,26,53)" transform="translate(0,0)"></path>
<path d="M 424.97 343.917 C 429.207 346.709 455.48 374.483 459.982 379.352 C 477.354 398.137 496.976 416.698 514.022 435.536 C 504.241 447.185 493.513 453.442 479.806 459.233 C 468.367 462.67 459.098 464.262 447.035 462.524 C 430.905 460.172 416.379 451.481 406.681 438.378 C 396.466 424.377 392.3 406.86 395.118 389.759 C 398.216 370.161 409.117 355.301 424.97 343.917 z" fill="rgb(52,211,153)" transform="translate(0,0)"></path>
<path d="M 1614.86 251.57 C 1623.59 253.738 1632.69 255.63 1641.49 257.58 C 1638.63 301.087 1619.4 307.519 1583.61 320.534 C 1556.12 331.642 1565.77 356.438 1558.95 372.632 C 1539.59 418.569 1493.79 391.272 1475.41 443.172 C 1466.09 440.747 1458.6 439.104 1449.18 436.26 C 1450.99 409.531 1459.55 387.653 1487.64 378.825 C 1495.88 376.235 1503.04 374.812 1510.64 370.801 C 1530.85 360.136 1526.04 341.837 1530.79 323.488 C 1535.03 306.347 1551.36 292.031 1568.11 287.272 C 1592.68 280.292 1607.11 279.321 1614.86 251.57 z" fill="rgb(30,26,53)" transform="translate(0,0)"></path>
<path d="M 1617.71 255.366 C 1624.36 256.894 1631.67 258.234 1638.4 259.608 C 1636.68 279.643 1630.8 295.553 1612.25 306.116 C 1603.9 310.869 1594.73 312.606 1585.93 316.083 C 1579.23 318.803 1573.23 322.99 1568.35 328.336 C 1552.88 345.488 1563.01 359.426 1554.7 374.574 C 1531.54 416.81 1494.87 389.418 1473.06 439.645 C 1466.11 437.905 1459.18 436.129 1452.25 434.318 C 1455.69 395.694 1471.74 385.515 1506.93 375.948 C 1536.06 368.029 1527.69 334.388 1536.36 317.035 C 1557.8 274.118 1596.67 303.279 1617.71 255.366 z" fill="rgb(167,139,250)" transform="translate(0,0)"></path>
<path d="M 282.964 827.691 C 286.966 830.024 295.162 840.821 297.425 845.075 C 329.804 905.951 277.892 969.968 211.47 949.66 C 197.039 943.675 191.037 939.586 179.739 928.878 C 214.519 896.862 247.756 860.457 282.964 827.691 z" fill="rgb(30,26,53)" transform="translate(0,0)"></path>
<path d="M 283.065 831.878 C 286.988 835.073 293.515 844.109 295.906 848.735 C 326.261 907.448 273.834 965.731 211.98 946.883 C 200.423 942.414 193.545 937.079 183.988 929.404 C 207.237 905.558 231.978 883.042 254.944 858.865 C 263.675 849.674 273.777 840.545 283.065 831.878 z" fill="rgb(124,58,237)" transform="translate(0,0)"></path>
<path d="M 436.019 602.744 C 443.093 602.843 454.364 604.684 461.695 605.675 C 467.331 657.704 503.145 636.102 525.303 673.922 C 536.586 693.181 522.688 713.733 535.419 730.7 C 546.331 745.243 569.113 749.096 579.248 765.66 C 588.97 780.889 587.694 795.197 584.349 811.621 L 558.619 808.682 C 553.609 765.24 515.867 776.094 498.355 742.596 C 486.205 719.355 502.591 704.672 488.837 686.536 C 477.277 671.293 453.867 670.148 442.305 651.541 C 431.862 634.734 432.814 621.027 436.019 602.744 z" fill="rgb(30,26,53)" transform="translate(0,0)"></path>
<path d="M 438.518 605.628 L 458.638 607.919 C 463.948 657.087 501.213 639.826 522.366 674.891 C 533.866 693.954 519.376 715.173 533.257 732.871 C 544.986 747.825 564.885 750.082 576.223 766.819 C 585.55 780.585 584.512 793.014 582.109 808.189 C 575.855 807.139 568.345 806.496 561.944 805.793 C 554.005 763.884 518.817 772.854 501.013 741.372 C 489.168 720.428 505.146 704.021 492.757 686.387 C 480.649 669.153 455.992 667.736 444.133 648.664 C 435.719 635.131 435.638 620.566 438.518 605.628 z" fill="rgb(52,211,153)" transform="translate(0,0)"></path>
<path d="M 1704.14 936.989 L 1705.13 937.585 C 1720.57 971.195 1743.86 957.631 1767.23 977.387 C 1784.19 991.727 1782.1 1005.79 1783.83 1024.58 C 1786.5 1053.5 1821.83 1051.66 1838.86 1066.26 C 1854.06 1079.29 1858.5 1094.79 1860.86 1113.65 C 1851.84 1118.21 1847.19 1120.02 1837.54 1123.02 C 1837.32 1123.04 1835.01 1122.66 1834.9 1122.44 C 1830.48 1113.52 1823.5 1101.19 1815.98 1094.62 C 1802.16 1082.55 1782.15 1082.5 1767.62 1070.29 C 1750.52 1055.92 1750.58 1041.09 1749.33 1020.78 C 1746.72 994.316 1712.94 996.932 1697.13 983.611 C 1685.79 974.061 1682.15 961.055 1680.64 946.854 L 1704.14 936.989 z" fill="rgb(30,26,53)" transform="translate(0,0)"></path>
<path d="M 1702.03 940.924 C 1704.62 942.193 1713.43 957.669 1720.78 961.041 C 1735.92 967.992 1749.63 967.289 1763.06 978.092 C 1782.85 994.006 1778.04 1006.44 1781.07 1026.69 C 1785.34 1055.25 1817.76 1053.82 1835.26 1067.25 C 1850.16 1078.68 1855.4 1094.6 1858.03 1112.25 C 1851.74 1114.94 1845.67 1117.01 1839.23 1119.27 C 1838.01 1119.52 1838.83 1119.44 1836.8 1118.87 C 1817.23 1082.89 1809.44 1088.25 1775.52 1071.98 C 1752.27 1060.83 1754.11 1036.57 1751.41 1015.95 C 1748.82 996.25 1717.33 992.274 1703.56 984.5 C 1690.41 976.952 1686.46 963.446 1683.23 949.269 C 1689.22 946.23 1695.81 943.573 1702.03 940.924 z" fill="rgb(244,114,182)" transform="translate(0,0)"></path>
<path d="M 1839.67 622.701 C 1845.24 625.985 1851.68 636.099 1854.75 641.919 C 1863.78 659.003 1865.87 679.377 1859.84 697.864 C 1854.06 715.435 1841.57 730.008 1825.09 738.399 C 1806.45 747.878 1787.37 748.069 1767.78 741.754 C 1754.97 736.979 1748.11 731.999 1738.08 722.917 C 1743.47 716.903 1749.46 710.927 1755.28 705.316 C 1783.44 678.145 1810.65 648.874 1839.67 622.701 z" fill="rgb(30,26,53)" transform="translate(0,0)"></path>
<path d="M 1839.53 626.648 C 1842.68 628.751 1849.15 637.958 1851.16 641.4 C 1859.93 656.418 1862.53 675.846 1858.32 692.695 C 1853.99 709.774 1843.06 724.438 1827.93 733.465 C 1809.32 744.484 1789.99 744.531 1769.66 739.245 C 1758.61 735.443 1750.72 730.152 1741.99 722.662 L 1839.53 626.648 z" fill="rgb(124,58,237)" transform="translate(0,0)"></path>
<path d="M 575.158 1383.69 C 583.653 1386.46 592.111 1389.35 600.526 1392.35 C 589.44 1449.19 564.096 1424.74 540.559 1445.46 C 532.341 1452.7 532.691 1463.24 531.857 1473.26 C 530.107 1494.29 517.163 1508.53 497.836 1515.79 C 482.796 1521.44 469.713 1522.75 457.096 1533.81 C 450.901 1539.24 445.109 1547.01 444.41 1555.4 C 439.932 1555.14 425.773 1551.13 418.794 1549.98 C 421.104 1510.34 437.909 1495.55 475.818 1487.29 C 480.096 1486.36 489.46 1479.87 492.438 1476.49 C 503.774 1463.61 497.182 1446.62 505.197 1431.25 C 524.331 1394.55 558.617 1421.79 575.158 1383.69 z" fill="rgb(30,26,53)" transform="translate(0,0)"></path>
<path d="M 577.8 1387.77 C 584.203 1389.29 590.935 1392.13 597.122 1394.5 C 590.898 1426.58 578.719 1428.89 551.619 1435.68 C 521.249 1442.58 533.899 1477.72 523.711 1491.69 C 495.792 1529.99 468.536 1502.28 440.581 1551.55 C 438.619 1551.55 424.782 1547.92 421.949 1547.23 C 423.626 1528.34 428.265 1511.5 445.7 1500.8 C 454.72 1495.26 464.553 1493.91 474.503 1490.93 C 481.166 1488.93 487.264 1485.38 492.302 1480.58 C 509.613 1463.95 498.286 1448.09 509.117 1430.71 C 529.303 1398.32 557.141 1423.23 577.8 1387.77 z" fill="rgb(244,114,182)" transform="translate(0,0)"></path>
<path d="M 606.674 1692.29 C 625.269 1689.98 645.156 1696.35 658.676 1709.37 C 670.903 1721.03 677.863 1737.17 677.957 1754.07 C 678.11 1776.82 667.185 1794.2 651.704 1809.74 L 643.323 1801.63 L 560.152 1716.56 C 575.419 1702.77 586.227 1695.51 606.674 1692.29 z" fill="rgb(30,26,53)" transform="translate(0,0)"></path>
<path d="M 607.719 1695.28 C 625.126 1693.71 641.193 1698 654.503 1709.79 C 666.704 1720.56 674.063 1735.78 674.926 1752.03 C 675.917 1773.33 665.839 1790.45 651.994 1805.51 L 643.732 1797.39 C 619.555 1772.71 587.084 1741.8 564.978 1716.75 C 578.286 1703.82 589.771 1698.31 607.719 1695.28 z" fill="rgb(167,139,250)" transform="translate(0,0)"></path>
<path d="M 1009.55 142.406 C 1010.78 142.335 1012 142.299 1013.22 142.3 C 1075.81 142.47 1097.32 213.616 1052.75 257.353 L 1042.32 247.523 C 1025.99 231.359 1009.82 215.042 993.806 198.574 C 984.026 188.606 970.993 174.613 960.474 166.199 C 973.957 151.312 989.944 144.386 1009.55 142.406 z" fill="rgb(30,26,53)" transform="translate(0,0)"></path>
<path d="M 1010.11 145.441 C 1056.46 143.418 1085.42 186.234 1069.1 228.737 C 1065.03 239.337 1060.31 245.049 1052.81 253.445 L 1041.66 242.293 L 965.023 165.501 C 978.928 153.014 991.785 147.362 1010.11 145.441 z" fill="rgb(244,114,182)" transform="translate(0,0)"></path>
<path d="M 1240.06 1714.58 C 1244.83 1716.19 1251.22 1726.79 1253.69 1731.41 C 1262.04 1747 1264.12 1765.23 1258.75 1782.19 C 1253.86 1797.81 1242.77 1810.73 1228.07 1817.94 C 1212.03 1826 1194.79 1825.82 1178.03 1820.37 C 1166.53 1815.77 1160.23 1811.09 1151.4 1802.75 C 1176.35 1775.57 1213.15 1741.02 1240.06 1714.58 z" fill="rgb(30,26,53)" transform="translate(0,0)"></path>
<path d="M 1240.11 1718.71 C 1243.71 1720.43 1248.83 1729.02 1250.8 1732.58 C 1259.19 1747.61 1260.97 1765.43 1255.74 1781.82 C 1245.77 1813.37 1210.51 1828.66 1179.98 1817.98 C 1169.43 1813.88 1163.81 1810.17 1155.79 1802.37 C 1164.21 1793.09 1174.75 1783.5 1183.84 1774.55 C 1202.76 1756.09 1221.51 1737.48 1240.11 1718.71 z" fill="rgb(167,139,250)" transform="translate(0,0)"></path>
<metadata><recraft-signature>{"signed_by": "recraft", "signature_b64": "xid4w1ImRTh6r6oHyXAJwfLTQfjpaYyfrpszOm0+w94hzA8ctMGvEW79SRT++ECWIPkWzeA5HsT3S8ZJPawdBQ==", "signing_algo": "Ed25519", "generation_timestamp": 1783632374, "identifier": "209e1718-3157-44d7-899f-32d5bc6feb3b"}</recraft-signature></metadata></svg>