<svg xmlns="http://www.w3.org/2000/svg" height="1024" preserveAspectRatio="none" style="display: block;" version="1.1" viewBox="0 0 2048 2048" width="1024">

<path d="M 804.268 882.113 C 811.222 883.685 818.759 886.13 825.678 887.996 C 898.27 907.57 977.379 894.67 1043.06 859.281 C 1059.74 850.289 1074.1 838.224 1090.11 828.375 C 1090.55 828.259 1090.99 828.142 1091.42 828.025 L 1090.49 832.208 C 1092.2 841.619 1088.16 863.521 1087.13 874.121 C 1081.82 928.487 1068.49 975.15 1090.59 1028.01 C 1115.4 1087.32 1162.56 1079.64 1216.74 1090.63 C 1282.01 1108.9 1333.17 1135.54 1382.18 1182.79 C 1413.96 1152.01 1451.23 1137.46 1496.25 1137.49 C 1535.54 1137.52 1587.99 1159.94 1589.64 1205.71 C 1590.05 1217.03 1582.48 1227.47 1579.57 1238.12 C 1573.55 1257.98 1579.24 1282.29 1593.18 1297.52 C 1601.29 1306.39 1614.46 1310.89 1624.13 1317.03 C 1661.19 1340.56 1665.57 1388.96 1635.34 1420.19 C 1630.61 1425.08 1625.26 1431.67 1621.74 1437.49 C 1610.75 1457.84 1617.68 1490.5 1634.46 1505.88 C 1651.52 1521.51 1670.21 1534.12 1669.72 1560.77 C 1669.36 1579.63 1660.68 1600.33 1646.27 1613.27 C 1609.49 1646.29 1565.67 1637.96 1520.4 1638.4 C 1496.25 1638.64 1468.97 1639.6 1445.59 1638.66 C 1444.82 1638.64 1444.06 1638.6 1443.3 1638.55 C 1438.2 1666.16 1428.2 1700.93 1424.34 1727.12 C 1423.53 1729.93 1422.68 1732.71 1421.78 1735.48 C 1417.8 1747.32 1408.69 1769.6 1403.74 1781.82 C 1395.44 1802.26 1383.68 1838.67 1371.87 1855.31 C 1364.36 1866.06 1354.21 1874.7 1342.39 1880.39 C 1318.77 1891.87 1294.1 1888.92 1268.49 1889.11 C 1231.13 1889.4 1194.03 1889.14 1156.6 1888.83 C 1131.26 1888.61 1111.89 1868.63 1116.65 1842.93 C 1119.14 1830.52 1126.14 1816.26 1131.1 1804.19 C 1141.69 1778.4 1152.57 1752.73 1163.75 1727.19 L 1166.08 1726.12 C 1168.83 1722.97 1170.75 1716.88 1172.13 1712.84 C 1186.81 1669.64 1199.87 1625.34 1205.7 1579.98 C 1206.82 1571.28 1207.63 1562.64 1209.24 1554.08 C 1192.38 1553.81 1175.52 1553.8 1158.66 1554.04 C 1145.82 1554.67 1127.88 1554.11 1114.67 1554.06 L 1027.12 1553.56 C 1025.94 1596.47 1014.85 1648.94 1000.98 1689.5 C 998.724 1697.77 987.93 1725.44 987.736 1728.8 L 958.836 1800.47 C 951.45 1818.9 943.939 1842.44 932.582 1858.38 C 921.094 1873.82 897.204 1887.2 877.813 1888.2 C 833.706 1890.48 788.7 1888.69 744.465 1889.28 C 733.991 1889.42 721.249 1889.72 711.027 1888.82 C 706.919 1888.45 702.893 1887.45 699.093 1885.85 C 664.085 1871.42 675.442 1837.46 687.846 1812.13 C 700.258 1786.79 709.233 1758.76 721.392 1733.23 C 723.339 1729.14 722.937 1728.28 727.013 1726.86 C 749.809 1669.69 776.352 1598.82 782.929 1538.05 C 782.85 1500.08 785.886 1462.73 786.255 1425.5 C 755.243 1382.71 731.637 1344.25 718.844 1292.54 C 716.075 1281.35 714.238 1263.2 711.079 1253.44 C 711.259 1249.02 710.648 1243.46 710.286 1238.99 C 704.265 1164.67 731.174 1089.9 778.588 1032.99 C 782.759 1027.99 789.821 1020.2 792.433 1014.71 C 791.705 1007.62 797.708 959.116 798.601 946.893 C 801.17 926.515 802.564 902.798 804.268 882.113 z" fill="rgb(167,139,250)" transform="translate(0,0)"></path>
<path d="M 1382.18 1182.79 C 1413.96 1152.01 1451.23 1137.46 1496.25 1137.49 C 1535.54 1137.52 1587.99 1159.94 1589.64 1205.71 C 1590.05 1217.03 1582.48 1227.47 1579.57 1238.12 C 1573.55 1257.98 1579.24 1282.29 1593.18 1297.52 C 1601.29 1306.39 1614.46 1310.89 1624.13 1317.03 C 1661.19 1340.56 1665.57 1388.96 1635.34 1420.19 C 1630.61 1425.08 1625.26 1431.67 1621.74 1437.49 C 1610.75 1457.84 1617.68 1490.5 1634.46 1505.88 C 1651.52 1521.51 1670.21 1534.12 1669.72 1560.77 C 1669.36 1579.63 1660.68 1600.33 1646.27 1613.27 C 1609.49 1646.29 1565.67 1637.96 1520.4 1638.4 C 1496.25 1638.64 1468.97 1639.6 1445.59 1638.66 C 1444.82 1638.64 1444.06 1638.6 1443.3 1638.55 C 1451.19 1601.94 1457.5 1563.72 1463.56 1526.65 C 1468.78 1494.66 1475.99 1455.98 1476.92 1423.97 C 1479.62 1330.72 1446.14 1250.01 1382.18 1182.79 z" fill="rgb(242,238,254)" transform="translate(0,0)"></path>
<path d="M 727.013 1726.86 C 811.594 1729.01 897.182 1725.59 981.849 1727.16 C 984.037 1727.2 985.789 1727.92 987.736 1728.8 L 958.836 1800.47 C 951.45 1818.9 943.939 1842.44 932.582 1858.38 C 921.094 1873.82 897.204 1887.2 877.813 1888.2 C 833.706 1890.48 788.7 1888.69 744.465 1889.28 C 733.991 1889.42 721.249 1889.72 711.027 1888.82 C 706.919 1888.45 702.893 1887.45 699.093 1885.85 C 664.085 1871.42 675.442 1837.46 687.846 1812.13 C 700.258 1786.79 709.233 1758.76 721.392 1733.23 C 723.339 1729.14 722.937 1728.28 727.013 1726.86 z" fill="rgb(30,26,53)" transform="translate(0,0)"></path>
<path d="M 1163.75 1727.19 L 1325.31 1727.1 C 1357.42 1727.09 1392.41 1726.35 1424.34 1727.12 C 1423.53 1729.93 1422.68 1732.71 1421.78 1735.48 C 1417.8 1747.32 1408.69 1769.6 1403.74 1781.82 C 1395.44 1802.26 1383.68 1838.67 1371.87 1855.31 C 1364.36 1866.06 1354.21 1874.7 1342.39 1880.39 C 1318.77 1891.87 1294.1 1888.92 1268.49 1889.11 C 1231.13 1889.4 1194.03 1889.14 1156.6 1888.83 C 1131.26 1888.61 1111.89 1868.63 1116.65 1842.93 C 1119.14 1830.52 1126.14 1816.26 1131.1 1804.19 C 1141.69 1778.4 1152.57 1752.73 1163.75 1727.19 z" fill="rgb(30,26,53)" transform="translate(0,0)"></path>
<path d="M 782.929 1538.05 C 844.479 1567.37 924.221 1607.89 975.162 1653.79 C 985.038 1662.69 994.655 1677.76 1000.98 1689.5 C 998.724 1697.77 987.93 1725.44 987.736 1728.8 C 985.789 1727.92 984.037 1727.2 981.849 1727.16 C 897.182 1725.59 811.594 1729.01 727.013 1726.86 C 749.809 1669.69 776.352 1598.82 782.929 1538.05 z" fill="rgb(167,139,250)" transform="translate(0,0)"></path>
<path d="M 786.255 1425.5 L 786.915 1426.11 C 800.571 1439.07 809.859 1452.78 825.852 1466.76 C 872.703 1507.71 923.693 1532.88 984.306 1546.49 C 996.677 1549.27 1014.72 1552.95 1027.12 1553.56 C 1025.94 1596.47 1014.85 1648.94 1000.98 1689.5 C 994.655 1677.76 985.038 1662.69 975.162 1653.79 C 924.221 1607.89 844.479 1567.37 782.929 1538.05 C 782.85 1500.08 785.886 1462.73 786.255 1425.5 z" fill="rgb(30,26,53)" transform="translate(0,0)"></path>
<path d="M 804.268 882.113 C 811.222 883.685 818.759 886.13 825.678 887.996 C 898.27 907.57 977.379 894.67 1043.06 859.281 C 1059.74 850.289 1074.1 838.224 1090.11 828.375 C 1090.55 828.259 1090.99 828.142 1091.42 828.025 L 1090.49 832.208 C 1066.19 881.959 1022.68 910.201 971.479 927.705 C 923.589 943.938 872.922 951.582 822.529 954.071 C 815.774 954.404 807.816 956.231 801.38 954.701 C 797.977 953.892 798.566 949.618 798.601 946.893 C 801.17 926.515 802.564 902.798 804.268 882.113 z" fill="rgb(30,26,53)" transform="translate(0,0)"></path>
<path d="M 1133.81 1354.06 C 1136.94 1427.57 1156.68 1490.17 1211.25 1542.61 C 1210.81 1546.07 1210.47 1551.03 1209.24 1554.08 C 1192.38 1553.81 1175.52 1553.8 1158.66 1554.04 C 1127.38 1522.44 1112.92 1480.8 1113.15 1436.65 C 1113.02 1407.82 1120.12 1379.42 1133.81 1354.06 z" fill="rgb(30,26,53)" transform="translate(0,0)"></path>
<path d="M 909.978 1084.41 C 911.766 1084.76 914.372 1085.26 915.523 1086.75 C 930.678 1106.38 941.132 1136.88 956.968 1155.53 C 977.98 1161.31 1002.32 1164.93 1023.63 1169.87 C 1028.27 1170.94 1034.23 1172.01 1036.84 1176.11 C 1036.74 1178.8 1036.7 1179.89 1034.59 1182.28 C 1018.86 1200.11 997.3 1218.44 982.751 1236.89 L 981.86 1238.03 C 983.243 1252.63 985.384 1269.37 987.757 1283.74 C 995.15 1328.52 993.167 1326.14 955.169 1308.61 L 913.934 1289.93 C 898.732 1293.39 846.392 1323.33 834.736 1319.56 C 834.309 1318.92 833.882 1318.29 833.455 1317.66 C 835.044 1296.41 840.586 1257.95 843.304 1238.19 C 833.474 1226.77 791.67 1186.49 787.528 1177.28 L 788.212 1175.63 C 797.276 1169.32 854.119 1159.05 868.279 1156.53 C 877.665 1143.2 884.612 1129.42 892.251 1115.2 C 896.496 1107.29 904.369 1090.38 909.978 1084.41 z" fill="rgb(251,191,36)" transform="translate(0,0)"></path>
<path d="M 1008.95 242.398 C 1016.51 224.972 1024.13 214.187 1033.45 198.831 C 1089.35 106.667 1168.01 155.38 1198.44 238.297 C 1219.56 295.867 1211.21 349.339 1170.1 396.816 C 1175.36 398.808 1184.79 400.54 1191.32 401.879 C 1222.92 408.367 1261.14 449.316 1248.11 483.284 C 1239.21 506.473 1224.11 522.464 1238.46 551.097 C 1254.41 585.912 1300.09 583.468 1306.97 630.003 C 1308.63 640.67 1307.56 651.582 1303.88 661.728 C 1290.06 699.18 1244.37 709.441 1268.4 761.691 C 1276.13 778.475 1285.43 782.932 1296.64 795.913 C 1322.4 825.754 1307.63 872.523 1275.57 891.29 C 1270.25 894.406 1264.62 898.612 1259.99 902.661 C 1243.89 916.479 1235.32 948.394 1246.26 967.312 C 1260.72 992.314 1273.24 1009.17 1261.48 1039.81 C 1252.61 1062.91 1236.44 1075.72 1216.74 1090.63 C 1162.56 1079.64 1115.4 1087.32 1090.59 1028.01 C 1068.49 975.15 1081.82 928.487 1087.13 874.121 C 1088.16 863.521 1092.2 841.619 1090.49 832.208 L 1091.42 828.025 C 1090.99 828.142 1090.55 828.259 1090.11 828.375 C 1074.1 838.224 1059.74 850.289 1043.06 859.281 C 977.379 894.67 898.27 907.57 825.678 887.996 C 818.759 886.13 811.222 883.685 804.268 882.113 C 748.225 863.355 698.702 828.988 661.522 783.05 C 568.636 669.949 580.987 509.955 695.842 416.937 C 639.129 352.753 624.328 291.095 666.582 213.241 C 688.828 172.254 732.815 131.096 781.368 158.692 C 810.201 175.08 839.182 223.551 847.907 254.584 C 857.609 253.144 878.43 257.08 887.544 262.27 C 908.44 245.017 926.643 234.178 954.293 230.55 C 976.503 227.636 989.464 232.562 1008.95 242.398 z" fill="rgb(167,139,250)" transform="translate(0,0)"></path>
<path d="M 1170.1 396.816 C 1175.36 398.808 1184.79 400.54 1191.32 401.879 C 1222.92 408.367 1261.14 449.316 1248.11 483.284 C 1239.21 506.473 1224.11 522.464 1238.46 551.097 C 1254.41 585.912 1300.09 583.468 1306.97 630.003 C 1308.63 640.67 1307.56 651.582 1303.88 661.728 C 1290.06 699.18 1244.37 709.441 1268.4 761.691 C 1276.13 778.475 1285.43 782.932 1296.64 795.913 C 1322.4 825.754 1307.63 872.523 1275.57 891.29 C 1270.25 894.406 1264.62 898.612 1259.99 902.661 C 1243.89 916.479 1235.32 948.394 1246.26 967.312 C 1260.72 992.314 1273.24 1009.17 1261.48 1039.81 C 1252.61 1062.91 1236.44 1075.72 1216.74 1090.63 C 1162.56 1079.64 1115.4 1087.32 1090.59 1028.01 C 1068.49 975.15 1081.82 928.487 1087.13 874.121 C 1088.16 863.521 1092.2 841.619 1090.49 832.208 L 1091.42 828.025 C 1092.59 825.57 1112.94 806.384 1117.36 801.565 C 1155.11 761.195 1180.43 710.801 1190.29 656.416 C 1202.44 589.575 1188.62 518.683 1158.34 458.535 C 1153.03 447.983 1146.29 433.949 1139.67 424.343 C 1151.51 414.767 1159.7 408.129 1170.1 396.816 z" fill="rgb(242,238,254)" transform="translate(0,0)"></path>
<path d="M 887.544 262.27 C 908.44 245.017 926.643 234.178 954.293 230.55 C 976.503 227.636 989.464 232.562 1008.95 242.398 C 988.926 292.129 984.312 337.088 1012.13 385.188 C 1006.28 400.445 997.606 409.98 984.798 419.832 C 954.925 442.811 925.024 440.111 892.801 425.205 C 883.178 450.163 869.82 466.481 844.759 477.802 C 822.815 487.561 797.898 488.23 775.463 479.661 C 739.945 465.888 715.511 424.822 737.764 389.324 C 738.969 388.468 745.037 382.297 747.947 380.127 C 764.347 367.898 776.817 363.883 796.606 361.587 C 785.736 344.342 781.346 328.439 782.543 307.914 C 783.655 288.843 790.666 279.252 804.307 267.381 C 819.621 257.482 830.024 256.037 847.907 254.584 C 857.609 253.144 878.43 257.08 887.544 262.27 z" fill="rgb(242,238,254)" transform="translate(0,0)"></path>
<path d="M 1029.16 495.43 C 1069.04 490.494 1105.4 518.744 1110.48 558.607 C 1115.56 598.471 1087.44 634.933 1047.59 640.152 C 1007.55 645.397 970.86 617.105 965.757 577.04 C 960.654 536.975 989.077 500.39 1029.16 495.43 z" fill="rgb(30,26,53)" transform="translate(0,0)"></path>
<path d="M 743.201 495.731 C 783.134 489.902 820.196 517.647 825.851 557.604 C 831.506 597.562 803.599 634.503 763.617 639.983 C 723.882 645.43 687.218 617.732 681.598 578.021 C 675.978 538.31 703.515 501.525 743.201 495.731 z" fill="rgb(30,26,53)" transform="translate(0,0)"></path>
<path d="M 715.037 647.308 C 744.961 642.977 772.721 663.747 777.01 693.677 C 781.299 723.606 760.489 751.338 730.554 755.584 C 700.678 759.822 673.015 739.063 668.735 709.193 C 664.454 679.324 685.174 651.631 715.037 647.308 z" fill="rgb(251,191,36)" transform="translate(0,0)"></path>
<path d="M 1058.3 647.158 C 1088.36 643.637 1115.56 665.231 1118.95 695.313 C 1122.34 725.395 1100.63 752.5 1070.54 755.759 C 1040.62 758.998 1013.72 737.448 1010.35 707.551 C 1006.98 677.653 1028.42 650.657 1058.3 647.158 z" fill="rgb(251,191,36)" transform="translate(0,0)"></path>
<path d="M 956.844 655.896 C 971.02 656.642 972.279 668.679 968.444 679.898 C 945.7 746.444 859.269 751.559 825.885 690.507 C 822.408 682.521 816.406 666.118 823.393 659.625 C 830.507 653.013 841.15 657.634 843.267 666.837 C 844.676 672.964 847.399 681.487 850.703 686.49 C 857.919 697.417 869.911 704.4 882.671 706.966 C 892.124 708.838 901.871 708.631 911.236 706.359 C 948.72 697.188 938.816 667.655 955.999 656.431 C 956.278 656.249 956.562 656.074 956.844 655.896 z" fill="rgb(251,191,36)" transform="translate(0,0)"></path>
<path d="M 625.944 881.557 C 651.267 922.989 697.783 965.481 739.732 989.556 C 754.688 998.139 772.794 1004.81 786.984 1012.72 L 792.433 1014.71 C 789.821 1020.2 782.759 1027.99 778.588 1032.99 C 731.174 1089.9 704.265 1164.67 710.286 1238.99 C 710.648 1243.46 711.259 1249.02 711.079 1253.44 C 676.545 1250.46 633.179 1232.59 606.04 1211.24 C 560.344 1179.47 509.085 1116.59 480.626 1068.67 C 473.118 1055.99 465.846 1043.17 458.815 1030.22 C 454.897 1022.9 451.666 1015.08 447.1 1008.16 C 469.898 1007.48 484.303 993.801 502.278 981.295 C 522.972 966.864 543.575 952.302 564.086 937.612 C 580.963 925.643 600.142 913.516 616.14 900.491 C 621.092 896.459 624.081 887.684 625.944 881.557 z" fill="rgb(167,139,250)" transform="translate(0,0)"></path>
<path d="M 786.984 1012.72 L 792.433 1014.71 C 789.821 1020.2 782.759 1027.99 778.588 1032.99 C 731.174 1089.9 704.265 1164.67 710.286 1238.99 C 710.648 1243.46 711.259 1249.02 711.079 1253.44 C 676.545 1250.46 633.179 1232.59 606.04 1211.24 C 658.781 1206.38 656.825 1188.01 676.573 1146.18 C 696.24 1104.51 723.828 1061.9 759.268 1032.22 C 767.523 1025.31 777.047 1017.22 786.984 1012.72 z" fill="rgb(30,26,53)" transform="translate(0,0)"></path>
<path d="M 462.366 789.753 C 495.045 778.344 537.211 781.132 568.003 796.7 C 602.153 813.965 631.933 840.162 625.944 881.557 C 624.081 887.684 621.092 896.459 616.14 900.491 C 600.142 913.516 580.963 925.643 564.086 937.612 C 543.575 952.302 522.972 966.864 502.278 981.295 C 484.303 993.801 469.898 1007.48 447.1 1008.16 C 409.694 1007.32 393.1 976.327 385.713 944.027 C 377.114 905.891 384.184 865.899 405.339 833.024 C 418.553 848.112 437.848 874.653 449.671 891.352 L 451.659 890.353 C 442.392 867.284 427.922 841.92 417.93 817.554 C 425.084 810.461 435.855 802.63 444.051 796.408 C 462.001 815.245 488.995 837.356 508.645 856.157 L 510.122 854.251 C 494.288 832.471 479.024 810.94 462.366 789.753 z" fill="rgb(30,26,53)" transform="translate(0,0)"></path>
<path d="M 510.122 854.251 C 511.243 855.625 514.205 858.975 514.363 860.797 L 514.26 861.031 C 512.639 860.825 509.818 857.4 508.645 856.157 L 510.122 854.251 z" fill="rgb(191,191,195)" transform="translate(0,0)"></path>
<path d="M 451.659 890.353 C 451.959 890.902 454.695 895.481 453.471 896.206 C 452.433 895.925 450.311 892.3 449.671 891.352 L 451.659 890.353 z" fill="rgb(191,191,195)" transform="translate(0,0)"></path>
<metadata><recraft-signature>{"signed_by": "recraft", "signature_b64": "Nr21wGaEfIv5bmEcLe9mCX6F1RXITyvkzDDZMjxpVsPemRRCWItvEhGnI4RKuau8TiJIuyKefJf8PQA0pye9AQ==", "signing_algo": "Ed25519", "generation_timestamp": 1783632275, "identifier": "5daaf0cd-12b9-4e72-953a-c40858335dbb"}</recraft-signature></metadata></svg>