<svg xmlns="http://www.w3.org/2000/svg" width="512" height="512" viewBox="0 0 512 512" role="img" aria-label="Chesser">
  <defs>
    <linearGradient id="bg" x1="64" y1="32" x2="448" y2="480" gradientUnits="userSpaceOnUse">
      <stop offset="0" stop-color="#8b5cf6"/>
      <stop offset="1" stop-color="#db2777"/>
    </linearGradient>
  </defs>
  <rect width="512" height="512" rx="120" fill="url(#bg)"/>
  <!-- rounded knight, kept within the maskable safe zone -->
  <path
    d="M179.2 392h161.6c8 0 12.8-8 9.6-16-8-16-22.4-25.6-22.4-49.6 0-38.4 32-57.6 32-113.6 0-67.2-51.2-112-116.8-112-9.6 0-16 9.6-11.2 17.6l9.6 17.6c3.2 6.4 0 12.8-6.4 16-36.8 12.8-73.6 41.6-89.6 80-3.2 8 0 16 6.4 20.8l25.6 16c6.4 4.8 16 3.2 20.8-3.2l16-19.2c4.8-6.4 16-6.4 19.2 1.6 8 16 3.2 36.8-12.8 54.4-20.8 22.4-46.4 38.4-52.8 70.4-1.6 9.6 3.2 19.2 11.2 19.2z"
    fill="#ffffff"
  />
  <circle cx="214.4" cy="169.6" r="16" fill="#5b21b6"/>
</svg>
