<svg xmlns="http://www.w3.org/2000/svg" height="1024" preserveAspectRatio="none" style="display: block;" version="1.1" viewBox="0 0 2048 2048" width="1024">
<path d="M 0 0 L 2048 0 L 2048 2048 L 1609.62 2048 L 1366.75 2048 L 681.843 2048 L 440.05 2048 L 0 2048 L 0 0 z" fill="rgb(3,241,40)" transform="translate(0,0)"></path>
<path d="M 1227.45 565.16 C 1238.18 542.392 1246.22 529.103 1261.23 507.695 C 1307.28 442.052 1398.49 382.561 1438.19 490.317 C 1460.17 549.961 1450.05 621.203 1432.67 682.893 C 1443.37 691.49 1453.6 700.112 1463.16 710.02 C 1488.18 682.444 1506.69 664.034 1541 646.846 C 1608.29 613.126 1643.85 652.102 1645.22 720.844 C 1646.61 790.844 1626.08 849.451 1583.96 906.036 C 1588.28 919.081 1594.1 935.286 1596.64 948.437 C 1679.74 888.992 1767.57 940.41 1747.05 1041.1 C 1735.41 1098.15 1701.78 1151.79 1654.08 1186.2 C 1641.97 1194.7 1608.26 1213.21 1594.27 1216.22 C 1554.15 1232.23 1513.86 1247.21 1471.71 1257.12 C 1464.56 1258.8 1456.41 1260.71 1449.41 1262.86 C 1441.19 1233.91 1415.08 1213.7 1384.99 1212.99 C 1372.15 1212.69 1359.47 1216 1348.42 1222.54 C 1327.45 1234.95 1314.63 1257.55 1314.73 1281.91 C 1197.07 1297.14 1048.88 1304.15 931.43 1298.43 C 890.062 1296.51 848.738 1293.71 807.486 1290.06 C 784.414 1287.96 756.84 1284.06 734.522 1282.85 C 734.92 1258.16 721.99 1235.17 700.686 1222.69 C 689.579 1216.19 676.863 1212.94 663.996 1213.34 C 634.474 1214.24 608.862 1233.98 600.471 1262.3 C 599.933 1262.32 585.337 1258.7 583.347 1258.22 C 555.991 1251.68 528.986 1243.75 502.436 1234.46 C 486.983 1228.95 471.8 1222.2 456.345 1216.97 C 452.452 1214.31 436.923 1208.81 431.658 1206.67 C 419.593 1201.86 407.965 1196.02 396.905 1189.21 C 349.511 1159.62 320.031 1110.45 307.237 1056.66 C 281.4 948.031 354.536 887.026 452.962 949.904 C 456.956 933.824 460.549 922.077 466.69 906.599 C 451.247 887.026 441.378 869.678 429.899 846.677 C 397.539 781.831 374.611 593.782 502.084 643.033 C 538.007 656.912 563.035 679.222 587.737 709.615 C 596.845 699.074 606.615 690.314 616.993 681.144 C 596.958 621.885 590.923 544.241 613.244 486.003 C 639.242 418.17 695.146 417.73 745.172 461.325 C 783.999 495.16 801.384 518.947 821.269 566.138 C 857.518 551.117 885.433 544.63 924.333 539.446 C 954.584 568.636 984.041 583.486 1027.38 582.788 C 1068.05 582.133 1097.76 566.873 1126.29 538.96 C 1166.35 545.465 1189.02 550.669 1227.45 565.16 z" fill="rgb(1,250,237)" transform="translate(0,0)"></path>
<path d="M 663.996 1213.34 C 652.723 1207.9 638.836 1201.71 628.42 1195.26 C 590.683 1171.48 561.971 1135.77 546.843 1093.81 C 530.358 1046.29 533.418 994.17 555.353 948.909 C 577.679 901.944 617.882 865.876 666.984 848.756 C 719.227 830.467 776.657 834.178 826.112 859.038 C 870.951 881.429 907.043 924.129 922.778 971.61 C 938.383 1019.15 934.378 1070.95 911.652 1115.53 C 886.805 1164.75 846.119 1198.36 793.872 1215.72 C 758.784 1227.38 736.487 1226.23 700.686 1222.69 C 689.579 1216.19 676.863 1212.94 663.996 1213.34 z" fill="rgb(242,238,254)" transform="translate(0,0)"></path>
<path d="M 726.996 904.955 C 797.388 900.992 857.678 954.815 861.692 1025.2 C 865.707 1095.59 811.927 1155.92 741.541 1159.99 C 671.083 1164.06 610.68 1110.21 606.661 1039.75 C 602.643 969.288 656.533 908.923 726.996 904.955 z" fill="rgb(63,63,63)" transform="translate(0,0)"></path>
<path d="M 1348.42 1222.54 C 1340.57 1222.35 1326.26 1224.32 1317.6 1224.68 C 1291.37 1225.76 1267.9 1221.09 1243.4 1211.88 C 1194.66 1193.68 1155.15 1156.84 1133.61 1109.47 C 1113.28 1063.63 1110.85 1010.4 1129.19 963.506 C 1148.26 913.952 1186.58 874.23 1235.42 853.389 C 1284.35 832.343 1339.68 831.793 1389.02 851.86 C 1438.42 871.948 1477.03 908.178 1497.82 957.543 C 1517.38 1003.46 1517.71 1055.31 1498.74 1101.48 C 1476.97 1154.36 1437.28 1191.15 1384.99 1212.99 C 1372.15 1212.69 1359.47 1216 1348.42 1222.54 z" fill="rgb(242,238,254)" transform="translate(0,0)"></path>
<path d="M 1302.91 905.263 C 1373.42 898.955 1435.62 951.175 1441.61 1021.71 C 1447.6 1092.25 1395.11 1154.21 1324.54 1159.89 C 1254.42 1165.54 1192.93 1113.44 1186.98 1043.35 C 1181.02 973.254 1232.84 911.53 1302.91 905.263 z" fill="rgb(63,63,63)" transform="translate(0,0)"></path>
<path d="M 1665.52 985.224 C 1670.59 984.823 1675.45 984.541 1680.55 985.006 C 1701.68 986.933 1711.59 1011.36 1708.24 1030.29 C 1699.12 1081.79 1667.26 1129.37 1626.21 1161.17 C 1617.97 1167.26 1608.27 1172.89 1599.16 1177.56 C 1610.03 1136.32 1616.94 1055.71 1605.64 1015.06 C 1626.04 1001.79 1641.44 989.686 1665.52 985.224 z" fill="rgb(52,211,153)" transform="translate(0,0)"></path>
<path d="M 368.171 985.232 C 369.392 985.104 370.614 984.992 371.838 984.896 C 396.362 982.991 423.64 1000.45 441.499 1015.67 C 434.836 1063.37 434.855 1128.31 446.837 1175.14 L 432.55 1166.52 C 393.582 1141.76 369.648 1112.57 351.315 1070.04 C 343.581 1052.1 336.663 1024.43 344.805 1005.71 C 349.798 994.222 357.203 989.486 368.171 985.232 z" fill="rgb(52,211,153)" transform="translate(0,0)"></path>
<path d="M 1317.09 704.487 C 1343.52 702.862 1366.3 722.895 1368.07 749.32 C 1369.84 775.745 1349.94 798.636 1323.52 800.55 C 1296.9 802.478 1273.79 782.382 1272.01 755.752 C 1270.23 729.122 1290.45 706.125 1317.09 704.487 z" fill="rgb(251,191,36)" transform="translate(0,0)"></path>
<path d="M 722.006 705.439 C 748.215 700.84 773.182 718.383 777.74 744.599 C 782.298 770.816 764.717 795.756 738.494 800.273 C 712.328 804.781 687.453 787.247 682.905 761.088 C 678.357 734.928 695.853 710.027 722.006 705.439 z" fill="rgb(251,191,36)" transform="translate(0,0)"></path>
<path d="M 933.22 1199.12 C 961.218 1197.75 1013.68 1233.45 976.17 1252.71 C 953.7 1254.22 934.277 1246.55 923.535 1225.46 C 916.303 1211.25 919.508 1205.67 933.22 1199.12 z" fill="rgb(52,211,153)" transform="translate(0,0)"></path>
<path d="M 1106.56 1200.2 C 1149.16 1197.2 1126.44 1248.39 1081.47 1252.55 C 1072.71 1252.14 1060.55 1248.4 1059.77 1239.01 C 1057.95 1217.22 1090.88 1203.03 1106.56 1200.2 z" fill="rgb(52,211,153)" transform="translate(0,0)"></path>
<path d="M 1384.99 1212.99 C 1415.08 1213.7 1441.19 1233.91 1449.41 1262.86 C 1456.41 1260.71 1464.56 1258.8 1471.71 1257.12 C 1513.86 1247.21 1554.15 1232.23 1594.27 1216.22 C 1563.7 1315.45 1516.25 1378.72 1425.77 1432.42 C 1375.2 1457.84 1357.13 1469.34 1300.66 1487.08 C 1299.41 1514.01 1305.03 1559.36 1314.27 1585.63 C 1301.65 1588.37 1292.5 1593.32 1281.15 1596.66 C 1262.21 1602.24 1225.12 1620.05 1206.45 1621.2 L 1206.28 1621.92 C 1214.89 1662.37 1224.03 1694.39 1243.17 1731.82 C 1258.88 1762.55 1278.71 1782.69 1297.71 1810.43 C 1346.06 1881 1366.9 1963.03 1366.75 2048 L 681.843 2048 C 681.711 1960.75 703.383 1877.82 754.36 1806.42 C 775.3 1777.1 795.114 1756.88 810.864 1723.09 C 826.653 1689.22 834.983 1659.62 843.067 1623.41 C 835.404 1621.94 820.286 1616.1 812.381 1613.73 C 786.662 1605.99 759.973 1595.22 734.275 1587.84 C 744.157 1549.75 748.562 1527.22 748.91 1487.32 C 697.345 1470.9 671.68 1457.83 624.473 1432.9 C 621.056 1430.4 616.141 1427.44 612.45 1425.27 C 553.709 1390.71 504.574 1338.94 476.297 1276.66 C 468.128 1258.67 462.02 1236.41 456.345 1216.97 C 471.8 1222.2 486.983 1228.95 502.436 1234.46 C 528.986 1243.75 555.991 1251.68 583.347 1258.22 C 585.337 1258.7 599.933 1262.32 600.471 1262.3 C 608.862 1233.98 634.474 1214.24 663.996 1213.34 C 676.863 1212.94 689.579 1216.19 700.686 1222.69 C 721.99 1235.17 734.92 1258.16 734.522 1282.85 C 756.84 1284.06 784.414 1287.96 807.486 1290.06 C 848.738 1293.71 890.062 1296.51 931.43 1298.43 C 1048.88 1304.15 1197.07 1297.14 1314.73 1281.91 C 1314.63 1257.55 1327.45 1234.95 1348.42 1222.54 C 1359.47 1216 1372.15 1212.69 1384.99 1212.99 z" fill="rgb(242,238,254)" transform="translate(0,0)"></path>
<path d="M 1384.99 1212.99 C 1415.08 1213.7 1441.19 1233.91 1449.41 1262.86 C 1456.73 1288.61 1448.41 1316.26 1428.1 1333.7 C 1407.79 1351.13 1379.2 1355.18 1354.86 1344.06 C 1330.51 1332.93 1314.85 1308.68 1314.73 1281.91 C 1314.63 1257.55 1327.45 1234.95 1348.42 1222.54 C 1359.47 1216 1372.15 1212.69 1384.99 1212.99 z" fill="rgb(249,153,156)" transform="translate(0,0)"></path>
<path d="M 663.996 1213.34 C 676.863 1212.94 689.579 1216.19 700.686 1222.69 C 721.99 1235.17 734.92 1258.16 734.522 1282.85 C 734.091 1309.53 718.197 1333.52 693.8 1344.32 C 669.404 1355.13 640.953 1350.77 620.912 1333.15 C 600.871 1315.54 592.892 1287.89 600.471 1262.3 C 608.862 1233.98 634.474 1214.24 663.996 1213.34 z" fill="rgb(249,153,156)" transform="translate(0,0)"></path>
<path d="M 748.91 1487.32 C 779.886 1497.7 821.738 1507.94 853.593 1513.42 C 852.777 1558.22 851.352 1578.83 843.067 1623.41 C 835.404 1621.94 820.286 1616.1 812.381 1613.73 C 786.662 1605.99 759.973 1595.22 734.275 1587.84 C 744.157 1549.75 748.562 1527.22 748.91 1487.32 z" fill="rgb(52,211,153)" transform="translate(0,0)"></path>
<path d="M 1196.09 1514.22 C 1226.87 1507.45 1271.53 1498.05 1300.66 1487.08 C 1299.41 1514.01 1305.03 1559.36 1314.27 1585.63 C 1301.65 1588.37 1292.5 1593.32 1281.15 1596.66 C 1262.21 1602.24 1225.12 1620.05 1206.45 1621.2 C 1198.77 1585.09 1196.45 1550.94 1196.09 1514.22 z" fill="rgb(52,211,153)" transform="translate(0,0)"></path>
<path d="M 1131.6 1325.41 C 1137.83 1324.9 1142.51 1330.98 1142.58 1336.82 C 1138.62 1347.8 1114.32 1349.4 1103.71 1350.89 C 1043.09 1359.73 981.416 1358.46 921.207 1347.12 C 914.772 1345.69 909.924 1344.15 908.379 1337.01 C 905.396 1323.24 924.767 1326.78 931.075 1327.53 C 965.613 1331.63 999.99 1335.74 1034.77 1335.21 C 1067.51 1334.71 1099.28 1329.89 1131.6 1325.41 z" fill="rgb(63,63,63)" transform="translate(0,0)"></path>
<path d="M 1206.45 1621.2 C 1225.12 1620.05 1262.21 1602.24 1281.15 1596.66 C 1292.5 1593.32 1301.65 1588.37 1314.27 1585.63 C 1323.57 1621.48 1343.53 1673.26 1366.36 1702.78 C 1378.33 1691.36 1389.83 1686.82 1406.76 1687.74 C 1443.03 1689.72 1516.1 1708.51 1513.7 1755.96 C 1512.18 1786.07 1487.41 1813.66 1468.56 1835.13 C 1485.72 1851.24 1507.21 1870.58 1521.03 1889.1 C 1529.38 1900.74 1538.68 1911.78 1547.03 1923.43 C 1563.02 1946.24 1576.96 1970.41 1588.69 1995.67 C 1597.2 2014.13 1602.1 2030.55 1609.62 2048 L 1366.75 2048 C 1366.9 1963.03 1346.06 1881 1297.71 1810.43 C 1278.71 1782.69 1258.88 1762.55 1243.17 1731.82 C 1224.03 1694.39 1214.89 1662.37 1206.28 1621.92 L 1206.45 1621.2 z" fill="rgb(1,250,237)" transform="translate(0,0)"></path>
<path d="M 734.275 1587.84 C 759.973 1595.22 786.662 1605.99 812.381 1613.73 C 820.286 1616.1 835.404 1621.94 843.067 1623.41 C 834.983 1659.62 826.653 1689.22 810.864 1723.09 C 795.114 1756.88 775.3 1777.1 754.36 1806.42 C 703.383 1877.82 681.711 1960.75 681.843 2048 L 440.05 2048 C 443.407 2035.74 449.177 2022.69 453.977 2010.89 C 473.537 1962.79 495.232 1928.85 528.001 1888.99 C 545.17 1867.94 565.257 1852.3 579.419 1834.87 C 561.668 1811.74 537.7 1787.8 535.7 1756.41 C 532.784 1710.65 602.044 1689.95 637.81 1688.07 C 656.497 1687.08 669.763 1690.69 683.594 1703.42 C 707.752 1665.67 721.119 1630.08 734.275 1587.84 z" fill="rgb(1,250,237)" transform="translate(0,0)"></path>
<path d="M 938.073 368.901 C 933.547 382.641 927.691 401.032 934.38 415.529 C 942.427 432.418 963.361 434.986 969.257 415.154 C 971.495 407.626 966.075 395.226 964.998 387.558 C 955.394 319.134 1024.32 305.383 1073.23 294.145 C 1058.82 314.484 1048.98 328.513 1052.18 357.012 C 1054.93 381.488 1084.33 413.724 1106.66 384.954 C 1111.51 378.703 1109.17 366.12 1106.86 358.143 C 1164.72 395.312 1175.28 466.104 1138.58 522.57 C 1134.82 528.278 1130.72 533.752 1126.29 538.96 C 1097.76 566.873 1068.05 582.133 1027.38 582.788 C 984.041 583.486 954.584 568.636 924.333 539.446 C 882.284 490.383 875.903 421.078 928.273 376.77 C 931.475 374.068 934.743 371.444 938.073 368.901 z" fill="rgb(251,191,36)" transform="translate(0,0)"></path>
<path d="M 1300.66 1487.08 C 1357.13 1469.34 1375.2 1457.84 1425.77 1432.42 C 1416.54 1472.58 1401.25 1505.13 1364.86 1527.78 C 1361.32 1529.94 1357.71 1531.97 1354.04 1533.89 C 1365.66 1538.92 1377.21 1543.95 1388.62 1549.49 C 1509.71 1608.26 1576.5 1761.43 1521.03 1889.1 C 1507.21 1870.58 1485.72 1851.24 1468.56 1835.13 C 1487.41 1813.66 1512.18 1786.07 1513.7 1755.96 C 1516.1 1708.51 1443.03 1689.72 1406.76 1687.74 C 1389.83 1686.82 1378.33 1691.36 1366.36 1702.78 C 1343.53 1673.26 1323.57 1621.48 1314.27 1585.63 C 1305.03 1559.36 1299.41 1514.01 1300.66 1487.08 z" fill="rgb(251,191,36)" transform="translate(0,0)"></path>
<path d="M 624.473 1432.9 C 671.68 1457.83 697.345 1470.9 748.91 1487.32 C 748.562 1527.22 744.157 1549.75 734.275 1587.84 C 721.119 1630.08 707.752 1665.67 683.594 1703.42 C 669.763 1690.69 656.497 1687.08 637.81 1688.07 C 602.044 1689.95 532.784 1710.65 535.7 1756.41 C 537.7 1787.8 561.668 1811.74 579.419 1834.87 C 565.257 1852.3 545.17 1867.94 528.001 1888.99 C 524.192 1878.34 517.716 1862.8 515.633 1852.23 C 505.058 1798.57 507.864 1747.06 527.359 1695.95 C 550.219 1637.64 592.077 1588.74 646.166 1557.15 C 661.49 1548.13 677.798 1541.1 694.011 1533.86 C 686.251 1529.13 679.703 1524.92 672.425 1519.48 C 647.306 1500.72 628.379 1463.78 624.473 1432.9 z" fill="rgb(251,191,36)" transform="translate(0,0)"></path>
<metadata><recraft-signature>{"signed_by": "recraft", "signature_b64": "V2jtEFdQRUoxsq7sLv1qqmV+K+ZoAarjRSk7ECoIQsb9FjKSOLani1ZvvLsr3IXg6H3ptgI7Str8IojTmyWjDA==", "signing_algo": "Ed25519", "generation_timestamp": 1783632339, "identifier": "f6c99aa0-d71b-4685-8a7c-d0b9476ba7b7"}</recraft-signature></metadata></svg>