<svg xmlns="http://www.w3.org/2000/svg" height="1024" preserveAspectRatio="none" style="display: block;" version="1.1" viewBox="0 0 2048 2048" width="1024">
<path d="M 0 0 L 2048 0 L 2048 2048 L 1745.58 2048 L 303.025 2048 L 0 2048 L 0 0 z" fill="rgb(217,119,6)" transform="translate(0,0)"></path>
<path d="M 897.865 544.739 C 911.631 542.605 924.749 539.212 938.869 537.175 C 986.326 530.204 1034.47 529.208 1082.17 534.209 C 1093.9 535.39 1104.62 536.718 1116.22 538.622 C 1124.21 539.933 1140.05 544.24 1147.41 544.732 C 1276.79 573.844 1389.14 653.501 1459.44 765.95 C 1497.29 826.681 1523.48 893.945 1536.65 964.286 C 1539.4 978.323 1541.62 992.459 1543.29 1006.66 C 1543.88 1011.25 1545.98 1029.98 1547.11 1033.5 C 1549.38 1041.28 1555.12 1050.98 1559.22 1058.22 C 1579.88 1094.67 1604.86 1124.32 1637.16 1151.22 C 1633.03 1153.34 1626.24 1156.39 1623.03 1159.39 C 1537.89 1209.95 1442.24 1240.21 1343.51 1247.84 C 1321.91 1249.69 1292.51 1251.28 1270.88 1249.9 C 1267.52 1249.98 1263.19 1249.69 1259.75 1249.56 C 1258.93 1249.76 1256.65 1250.62 1256.58 1251.15 C 1255.95 1256.15 1254.65 1263.53 1253.75 1268.19 C 1247.17 1303.35 1232.26 1336.43 1210.27 1364.64 C 1193.61 1386.24 1173.12 1404.68 1150.02 1419.13 C 1002.88 1511.16 812.69 1422.12 791.87 1249.83 L 776.434 1249.7 C 761.128 1250.53 745.786 1250.38 730.5 1249.24 C 718.702 1249.87 690.665 1246.7 678.726 1245.29 C 588.526 1235.41 501.572 1205.94 423.942 1158.96 C 420.308 1156.05 414.528 1152.37 410.551 1149.67 C 443.908 1123.3 485.639 1074.55 500.477 1034.19 C 504.674 1014.32 505.823 986.908 510.437 964.662 C 522.758 905.263 543.831 844.181 572.977 791.079 C 627.874 690.362 716.149 611.921 822.621 569.246 C 847.04 559.333 872.591 552.102 897.865 544.739 z" fill="rgb(254,57,21)" transform="translate(0,0)"></path>
<path d="M 1073.08 1056.86 C 1103.49 1036.55 1140.14 1048.7 1168.94 1065.16 C 1174.1 1068.11 1191.67 1082.55 1194.63 1082.94 C 1201.28 1097.34 1212.06 1109.45 1225.62 1117.69 C 1227.12 1126.41 1235.75 1136.51 1239.81 1144.61 C 1249.78 1164.5 1255.72 1190.54 1257.32 1212.74 C 1257.65 1217.35 1256.98 1241.4 1259.33 1243.69 C 1263.02 1244.36 1263.98 1244.39 1267.76 1244.39 C 1263.19 1244.49 1260.95 1244.09 1257.07 1246.16 L 1256.25 1247.63 C 1258.15 1249.64 1257.07 1248.89 1259.75 1249.56 C 1258.93 1249.76 1256.65 1250.62 1256.58 1251.15 C 1255.95 1256.15 1254.65 1263.53 1253.75 1268.19 C 1247.17 1303.35 1232.26 1336.43 1210.27 1364.64 C 1193.61 1386.24 1173.12 1404.68 1150.02 1419.13 C 1002.88 1511.16 812.69 1422.12 791.87 1249.83 L 791.906 1244.19 C 788.421 1212.87 796.271 1172.49 809.303 1144.06 C 812.907 1136.2 821.379 1124.13 823.34 1116.9 C 835.974 1108.79 846.065 1097.28 852.453 1083.7 C 890.667 1057.53 929.839 1030.59 975.678 1057.17 C 977.2 1058.72 978.36 1059.91 980.003 1061.32 C 981.659 1063.43 983.273 1065.26 985.025 1067.28 C 1010.39 1050.39 1037.05 1049.43 1061.99 1067.61 C 1063.97 1065.53 1066.34 1062.75 1068.53 1061.04 C 1071.02 1059.4 1071.08 1059.14 1073.08 1056.86 z" fill="rgb(251,191,36)" transform="translate(0,0)"></path>
<path d="M 986.213 1078.1 C 1010.39 1057.85 1039.3 1058.32 1061.57 1081.1 C 1064.67 1104.29 1067.24 1112.09 1084.48 1128.12 C 1090.15 1141.97 1095.9 1154.75 1103.89 1167.56 C 1106.72 1172.09 1114.5 1179.76 1116.25 1183.99 L 1116.8 1183.97 C 1125.28 1191.11 1133.19 1198.84 1141.78 1205.73 C 1174.78 1232.19 1202.93 1241.97 1243.75 1248.48 C 1242.2 1265.77 1238.77 1280.56 1233.05 1297.02 C 1213.43 1352.21 1172.46 1397.21 1119.35 1421.9 C 1065.86 1447.16 1004.51 1450.11 948.85 1430.09 C 886.528 1407.34 832.98 1355.72 813.855 1291.42 C 811.848 1284.67 803.812 1254.63 805.999 1248.64 C 861.353 1238.64 888.605 1222.94 928.597 1184.27 C 938.381 1173.15 960.152 1144.27 961.736 1129.45 C 979.378 1115.42 984.356 1099.56 986.213 1078.1 z" fill="rgb(242,238,254)" transform="translate(0,0)"></path>
<path d="M 986.213 1078.1 C 1010.39 1057.85 1039.3 1058.32 1061.57 1081.1 C 1064.67 1104.29 1067.24 1112.09 1084.48 1128.12 C 1090.15 1141.97 1095.9 1154.75 1103.89 1167.56 C 1106.72 1172.09 1114.5 1179.76 1116.25 1183.99 C 1109.63 1182.29 1100.83 1179.13 1094.16 1176.96 C 1088.52 1201.91 1064.93 1226.55 1044.3 1240.83 C 1038.75 1244.66 1033.59 1245.87 1027.11 1247.27 C 1026.85 1266.41 1025.17 1282.05 1040.16 1297.34 C 1048.18 1305.58 1059.25 1310.15 1070.75 1309.96 C 1087.17 1309.57 1099.52 1300.9 1104.4 1285.18 C 1105.04 1280.34 1104.22 1280.46 1106.87 1277.47 L 1108.52 1277.68 C 1111.22 1282.16 1110.98 1282.97 1109.77 1288.07 C 1109.52 1289.12 1109.25 1290.17 1108.98 1291.22 C 1104.32 1300.06 1100.26 1305.17 1091.03 1310.15 C 1079.93 1316.07 1066.89 1317.19 1054.95 1313.23 C 1039.76 1308.11 1031.23 1297.74 1024.44 1284 C 1010.51 1311.22 979.256 1326.09 951.697 1306.7 C 945.151 1302.09 934.898 1283.19 940.937 1276.23 C 946.52 1278.88 945.86 1293.16 951.963 1299.08 C 968.249 1314.87 993.318 1312.46 1008.82 1296.74 C 1022.96 1282.4 1021.22 1265.33 1021.02 1247.02 C 1003.35 1243.35 992.218 1232.52 980.455 1219.56 C 969.422 1207.4 957.001 1193.47 954.274 1176.76 C 945.703 1179.78 937.353 1181.92 928.597 1184.27 C 938.381 1173.15 960.152 1144.27 961.736 1129.45 C 979.378 1115.42 984.356 1099.56 986.213 1078.1 z" fill="rgb(30,26,53)" transform="translate(0,0)"></path>
<path d="M 986.213 1078.1 C 1010.39 1057.85 1039.3 1058.32 1061.57 1081.1 C 1064.67 1104.29 1067.24 1112.09 1084.48 1128.12 C 1090.15 1141.97 1095.9 1154.75 1103.89 1167.56 C 1106.72 1172.09 1114.5 1179.76 1116.25 1183.99 C 1109.63 1182.29 1100.83 1179.13 1094.16 1176.96 C 1089.48 1169.22 1086.49 1165.4 1080.35 1159.01 C 1056.16 1152.25 996.096 1149.16 970.967 1159.12 C 962.62 1162.43 957.421 1168.35 954.274 1176.76 C 945.703 1179.78 937.353 1181.92 928.597 1184.27 C 938.381 1173.15 960.152 1144.27 961.736 1129.45 C 979.378 1115.42 984.356 1099.56 986.213 1078.1 z" fill="rgb(254,57,21)" transform="translate(0,0)"></path>
<path d="M 1072.87 1071.73 C 1099.29 1040.44 1160.95 1072.61 1184.02 1093.39 C 1222.78 1128.32 1240.35 1170.91 1243.87 1222.15 C 1244.33 1229.29 1244.39 1236.45 1244.06 1243.6 L 1243.75 1248.48 C 1202.93 1241.97 1174.78 1232.19 1141.78 1205.73 C 1133.19 1198.84 1125.28 1191.11 1116.8 1183.97 L 1116.25 1183.99 C 1114.5 1179.76 1106.72 1172.09 1103.89 1167.56 C 1095.9 1154.75 1090.15 1141.97 1084.48 1128.12 C 1090.26 1130.81 1090.35 1132.19 1093.28 1138.07 C 1098.11 1129.34 1091.07 1125.86 1085.68 1118.78 C 1080.94 1121.67 1073.42 1097.28 1073.15 1093.49 C 1072.59 1085.73 1068.13 1078.67 1072.87 1071.73 z" fill="rgb(242,238,254)" transform="translate(0,0)"></path>
<path d="M 1084.48 1128.12 C 1090.26 1130.81 1090.35 1132.19 1093.28 1138.07 C 1102.57 1157.06 1107.03 1163.71 1121.04 1179.63 C 1160.22 1220.06 1189.28 1234.8 1244.06 1243.6 L 1243.75 1248.48 C 1202.93 1241.97 1174.78 1232.19 1141.78 1205.73 C 1133.19 1198.84 1125.28 1191.11 1116.8 1183.97 L 1116.25 1183.99 C 1114.5 1179.76 1106.72 1172.09 1103.89 1167.56 C 1095.9 1154.75 1090.15 1141.97 1084.48 1128.12 z" fill="rgb(30,26,53)" transform="translate(0,0)"></path>
<path d="M 1072.87 1071.73 C 1077.5 1087.79 1079.76 1102.31 1085.68 1118.78 C 1080.94 1121.67 1073.42 1097.28 1073.15 1093.49 C 1072.59 1085.73 1068.13 1078.67 1072.87 1071.73 z" fill="rgb(30,26,53)" transform="translate(0,0)"></path>
<path d="M 804.067 1243.54 C 804.028 1174.14 827.511 1110.59 890.674 1075.08 C 910.354 1064.02 931.76 1054.95 954.747 1061.38 C 961.018 1063.13 972.11 1066.92 975.343 1072.57 C 981.274 1082.41 971.223 1110.55 963.219 1118.33 L 962.484 1119.06 C 958.787 1122.4 954.034 1125.74 953.105 1130.43 C 954.116 1132.79 953.975 1132.71 955.81 1134.47 C 958.154 1131.63 958.751 1131.39 961.736 1129.45 C 960.152 1144.27 938.381 1173.15 928.597 1184.27 C 888.605 1222.94 861.353 1238.64 805.999 1248.64 C 803.714 1246.18 804.65 1247.63 804.067 1243.54 z" fill="rgb(242,238,254)" transform="translate(0,0)"></path>
<path d="M 961.736 1129.45 C 960.152 1144.27 938.381 1173.15 928.597 1184.27 C 888.605 1222.94 861.353 1238.64 805.999 1248.64 C 803.714 1246.18 804.65 1247.63 804.067 1243.54 C 868.164 1234.42 928.498 1194.2 955.81 1134.47 C 958.154 1131.63 958.751 1131.39 961.736 1129.45 z" fill="rgb(30,26,53)" transform="translate(0,0)"></path>
<path d="M 975.343 1072.57 C 981.274 1082.41 971.223 1110.55 963.219 1118.33 L 962.484 1119.06 C 965.243 1110.91 969.128 1099.25 970.824 1090.99 L 971.858 1085.99 C 972.859 1081.03 973.657 1077.36 975.343 1072.57 z" fill="rgb(30,26,53)" transform="translate(0,0)"></path>
<path d="M 782.954 852.123 C 797.105 853.23 813.317 854.46 827.026 857.863 C 866.313 867.618 903.074 890.834 929.191 921.69 C 949.821 946.064 960.335 969.341 969.422 999.224 C 971.798 1011.35 973.944 1023.29 975.259 1035.59 C 975.026 1042.39 974.934 1050.41 975.678 1057.17 C 929.839 1030.59 890.667 1057.53 852.453 1083.7 C 846.065 1097.28 835.974 1108.79 823.34 1116.9 C 821.379 1124.13 812.907 1136.2 809.303 1144.06 C 796.271 1172.49 788.421 1212.87 791.906 1244.19 C 704.288 1245.53 628.003 1197.05 597.802 1112.99 C 593.041 1099.74 592.062 1088.12 588.548 1075.3 L 588.188 1074.01 C 587.467 1064.92 586.949 1055.82 586.634 1046.71 C 586.998 1012.84 595.867 979.607 612.426 950.06 C 640.841 899.864 682.232 872.635 736.649 857.468 C 754.336 854.132 764.953 852.667 782.954 852.123 z" fill="rgb(242,238,254)" transform="translate(0,0)"></path>
<path d="M 823.34 1116.9 C 789.876 1138.38 745.707 1131.94 719.765 1101.8 C 693.823 1071.67 694.026 1027.03 720.241 997.135 C 746.456 967.237 790.682 961.202 823.949 982.982 C 857.216 1004.76 869.372 1047.71 852.453 1083.7 C 846.065 1097.28 835.974 1108.79 823.34 1116.9 z" fill="rgb(30,26,53)" transform="translate(0,0)"></path>
<path d="M 1089.53 967.613 C 1095 957.462 1100.3 947.825 1106.6 938.149 C 1160.07 856.04 1272.25 828.282 1358.39 875.246 C 1405.15 900.435 1439.8 943.371 1454.56 994.387 C 1468.21 1040.91 1461.58 1098.69 1437.69 1140.78 C 1427.72 1158.35 1418.32 1170.8 1404.94 1185.77 C 1364.45 1223.07 1324.56 1242.36 1268.64 1244.42 L 1267.76 1244.39 C 1263.98 1244.39 1263.02 1244.36 1259.33 1243.69 C 1256.98 1241.4 1257.65 1217.35 1257.32 1212.74 C 1255.72 1190.54 1249.78 1164.5 1239.81 1144.61 C 1235.75 1136.51 1227.12 1126.41 1225.62 1117.69 C 1212.06 1109.45 1201.28 1097.34 1194.63 1082.94 C 1191.67 1082.55 1174.1 1068.11 1168.94 1065.16 C 1140.14 1048.7 1103.49 1036.55 1073.08 1056.86 C 1072.78 1022.32 1076.97 999.264 1089.53 967.613 z" fill="rgb(242,238,254)" transform="translate(0,0)"></path>
<path d="M 1194.63 1082.94 C 1178.08 1047.04 1190.3 1004.43 1223.36 982.759 C 1256.43 961.091 1300.37 966.894 1326.68 996.402 C 1352.99 1025.91 1353.73 1070.23 1328.42 1100.6 C 1303.12 1130.97 1259.39 1138.24 1225.62 1117.69 C 1212.06 1109.45 1201.28 1097.34 1194.63 1082.94 z" fill="rgb(30,26,53)" transform="translate(0,0)"></path>
<path d="M 1083.25 970.823 C 1105.04 919.64 1143.1 881.679 1194.77 861.05 C 1243.49 842.059 1297.74 843.067 1345.72 863.855 C 1396.16 885.652 1432.98 923.235 1452.93 974.519 C 1472.6 1024.87 1470.95 1081.06 1448.37 1130.18 C 1437.19 1155.05 1426.29 1169.32 1407.68 1188.83 C 1375.67 1220.38 1328.95 1247.24 1283.23 1248.07 C 1278.87 1248.86 1275.28 1249.4 1270.88 1249.9 C 1267.52 1249.98 1263.19 1249.69 1259.75 1249.56 C 1257.07 1248.89 1258.15 1249.64 1256.25 1247.63 L 1257.07 1246.16 C 1260.95 1244.09 1263.19 1244.49 1267.76 1244.39 L 1268.64 1244.42 C 1324.56 1242.36 1364.45 1223.07 1404.94 1185.77 C 1418.32 1170.8 1427.72 1158.35 1437.69 1140.78 C 1461.58 1098.69 1468.21 1040.91 1454.56 994.387 C 1439.8 943.371 1405.15 900.435 1358.39 875.246 C 1272.25 828.282 1160.07 856.04 1106.6 938.149 C 1100.3 947.825 1095 957.462 1089.53 967.613 C 1076.97 999.264 1072.78 1022.32 1073.08 1056.86 C 1071.08 1059.14 1071.02 1059.4 1068.53 1061.04 C 1066.34 1062.75 1063.97 1065.53 1061.99 1067.61 C 1037.05 1049.43 1010.39 1050.39 985.025 1067.28 C 983.273 1065.26 981.659 1063.43 980.003 1061.32 C 978.36 1059.91 977.2 1058.72 975.678 1057.17 C 974.934 1050.41 975.026 1042.39 975.259 1035.59 C 973.944 1023.29 971.798 1011.35 969.422 999.224 C 960.335 969.341 949.821 946.064 929.191 921.69 C 903.074 890.834 866.313 867.618 827.026 857.863 C 813.317 854.46 797.105 853.23 782.954 852.123 C 764.953 852.667 754.336 854.132 736.649 857.468 C 682.232 872.635 640.841 899.864 612.426 950.06 C 595.867 979.607 586.998 1012.84 586.634 1046.71 C 586.949 1055.82 587.467 1064.92 588.188 1074.01 L 588.548 1075.3 C 592.062 1088.12 593.041 1099.74 597.802 1112.99 C 628.003 1197.05 704.288 1245.53 791.906 1244.19 L 791.87 1249.83 L 776.434 1249.7 C 761.044 1248.36 747.737 1246.53 732.691 1243.11 C 703.915 1234.68 681.797 1223.67 657.964 1205.14 C 620.951 1176.36 589.37 1125.75 584.313 1078.26 C 581.38 1065.47 580.978 1047.62 582.21 1034.56 C 582.175 1029.32 583.709 1021.15 584.581 1015.84 C 599.661 923.881 666.3 862.492 756.828 849.155 C 767.794 847.928 777.189 847.438 788.179 848.108 C 841.334 849.714 891.588 872.722 927.536 911.911 C 948.088 933.951 966.915 966.603 973.2 996.229 C 974.756 1001.33 975.533 1005.1 976.573 1010.26 L 978.197 1016.15 C 980.603 1016.43 987.43 1009.95 990.808 1007.92 C 1020.78 989.936 1045.81 995.16 1069.49 1018.59 C 1075.12 998.142 1073.7 992.849 1083.25 970.823 z" fill="rgb(30,26,53)" transform="translate(0,0)"></path>
<path d="M 979.008 1024.93 C 1006.32 996.174 1038.53 994.742 1067.16 1022.93 C 1067.61 1023.3 1068.05 1023.66 1068.5 1024.03 C 1069.28 1028.97 1068.42 1053.74 1068.53 1061.04 C 1066.34 1062.75 1063.97 1065.53 1061.99 1067.61 C 1037.05 1049.43 1010.39 1050.39 985.025 1067.28 C 983.273 1065.26 981.659 1063.43 980.003 1061.32 C 980.121 1054.15 980.09 1046.97 979.91 1039.8 C 979.797 1034.57 979.367 1030.1 979.008 1024.93 z" fill="rgb(254,57,21)" transform="translate(0,0)"></path>
<path d="M 1214.9 1600.57 C 1269.23 1606.34 1286.27 1674.22 1246.38 1704.73 C 1244.83 1705.89 1243.23 1706.99 1241.59 1708.01 L 1415.82 1748.75 C 1445.29 1755.72 1481.16 1761.83 1509.29 1771.5 C 1632.08 1813.69 1717.27 1924.69 1745.58 2048 L 303.025 2048 C 324.123 1932.95 410.394 1824.63 518.252 1778.74 C 537.006 1769.95 556.229 1766.57 575.992 1761.63 C 652.256 1742.59 731.082 1728.21 806.933 1708.19 C 762.556 1681.4 774.408 1610.8 831.107 1600.96 C 844.25 1601.77 863.505 1607.91 876.902 1610.79 C 897.947 1615.09 919.176 1618.43 940.524 1620.82 C 1010.73 1628.48 1081.67 1626.28 1151.26 1614.29 C 1172.47 1610.69 1195.08 1603.54 1214.9 1600.57 z" fill="rgb(242,238,254)" transform="translate(0,0)"></path>
<path d="M 423.942 1158.96 C 501.572 1205.94 588.526 1235.41 678.726 1245.29 C 690.665 1246.7 718.702 1249.87 730.5 1249.24 C 745.786 1250.38 761.128 1250.53 776.434 1249.7 L 791.87 1249.83 C 812.69 1422.12 1002.88 1511.16 1150.02 1419.13 C 1173.12 1404.68 1193.61 1386.24 1210.27 1364.64 C 1232.26 1336.43 1247.17 1303.35 1253.75 1268.19 C 1254.65 1263.53 1255.95 1256.15 1256.58 1251.15 C 1256.65 1250.62 1258.93 1249.76 1259.75 1249.56 C 1263.19 1249.69 1267.52 1249.98 1270.88 1249.9 C 1292.51 1251.28 1321.91 1249.69 1343.51 1247.84 C 1442.24 1240.21 1537.89 1209.95 1623.03 1159.39 C 1655.02 1179.44 1681.54 1191.84 1719.65 1197.64 C 1723.65 1198.25 1735.4 1199.63 1735.77 1204.09 C 1736.5 1212.89 1718.46 1233.6 1712.79 1240.36 C 1614.37 1356.08 1485.01 1441.34 1339.86 1486.16 C 1312.31 1494.41 1284.88 1501.11 1256.88 1507.55 C 1247.98 1509.59 1220.3 1512.51 1214.35 1514.6 C 1217.94 1520.13 1214.94 1585.92 1215.85 1598.07 C 1215.91 1598.75 1215.25 1599.9 1214.9 1600.57 C 1195.08 1603.54 1172.47 1610.69 1151.26 1614.29 C 1081.67 1626.28 1010.73 1628.48 940.524 1620.82 C 919.176 1618.43 897.947 1615.09 876.902 1610.79 C 863.505 1607.91 844.25 1601.77 831.107 1600.96 C 831.002 1586.11 828.751 1526.03 831.167 1515.7 L 833.788 1514.5 C 830.73 1513.56 824.771 1513.09 821.318 1512.51 C 674.213 1488.07 529.688 1423.12 417.171 1324.66 C 381.524 1293.46 348.022 1258.87 320.018 1220.62 C 313.651 1211.92 306.91 1201.6 322.417 1198.87 C 358.687 1192.48 394.017 1181.1 423.942 1158.96 z" fill="rgb(242,238,254)" transform="translate(0,0)"></path>
<path d="M 833.788 1514.5 L 835.288 1514.56 C 849.819 1515.29 858.274 1525.44 870.452 1532.04 C 967.175 1584.47 1091.4 1584.12 1186.81 1528.53 C 1195.43 1523.5 1204.81 1514.49 1214.35 1514.6 C 1217.94 1520.13 1214.94 1585.92 1215.85 1598.07 C 1215.91 1598.75 1215.25 1599.9 1214.9 1600.57 C 1195.08 1603.54 1172.47 1610.69 1151.26 1614.29 C 1081.67 1626.28 1010.73 1628.48 940.524 1620.82 C 919.176 1618.43 897.947 1615.09 876.902 1610.79 C 863.505 1607.91 844.25 1601.77 831.107 1600.96 C 831.002 1586.11 828.751 1526.03 831.167 1515.7 L 833.788 1514.5 z" fill="rgb(254,57,21)" transform="translate(0,0)"></path>
<path d="M 1147.41 544.732 C 1223.5 476.321 1299.99 422.194 1398.08 389.124 C 1488.84 358.527 1591.8 347.088 1662.55 427.004 C 1711.28 482.049 1724.48 562.665 1720.55 634.014 C 1713.3 759.364 1654.77 879.505 1585.39 981.995 C 1576.68 994.869 1557.21 1022.52 1547.11 1033.5 C 1545.98 1029.98 1543.88 1011.25 1543.29 1006.66 C 1541.62 992.459 1539.4 978.323 1536.65 964.286 C 1523.48 893.945 1497.29 826.681 1459.44 765.95 C 1389.14 653.501 1276.79 573.844 1147.41 544.732 z" fill="rgb(30,26,53)" transform="translate(0,0)"></path>
<path d="M 500.477 1034.19 C 406.109 909.464 325.673 764.867 326.419 603.768 C 326.99 538.502 347.621 459.79 397.224 415.034 C 537.657 288.325 792.114 436.512 897.865 544.739 C 872.591 552.102 847.04 559.333 822.621 569.246 C 716.149 611.921 627.874 690.362 572.977 791.079 C 543.831 844.181 522.758 905.263 510.437 964.662 C 505.823 986.908 504.674 1014.32 500.477 1034.19 z" fill="rgb(30,26,53)" transform="translate(0,0)"></path>
<metadata><recraft-signature>{"signed_by": "recraft", "signature_b64": "4RS+flibtFj1r5kOMmf1q4+NNjr8RCECbu2SR5ChecJSHViNlBpOTqf6wuAAkE9hoZ5H3o+e4bx0QVlZuZwJBA==", "signing_algo": "Ed25519", "generation_timestamp": 1783632348, "identifier": "77ee7bf3-c8c1-470e-af81-28e29aaac885"}</recraft-signature></metadata></svg>