<svg xmlns="http://www.w3.org/2000/svg" height="1024" preserveAspectRatio="none" style="display: block;" version="1.1" viewBox="0 0 2048 2048" width="1024">
<path d="M 0 0 L 2048 0 L 2048 2048 L 1893.15 2048 L 157.099 2048 L 0 2048 L 0 0 z" fill="rgb(124,58,237)" transform="translate(0,0)"></path>
<path d="M 1268.62 509.116 C 1264.95 539.466 1269.45 586.809 1269.4 617.874 C 1269.39 621.164 1289.97 624.167 1277.62 649.482 C 1301 657.8 1332.71 673.682 1354.42 685.949 C 1471.11 752.182 1564.89 852.347 1623.3 973.142 C 1726.99 1191.57 1684.69 1407.5 1628.28 1631.8 C 1637.68 1636.74 1647.4 1641.68 1656.58 1646.98 C 1756.25 1704.45 1837.85 1801.55 1872.18 1911.68 C 1885.69 1955.88 1892.75 2001.79 1893.15 2048 L 157.099 2048 C 156.065 2000.53 166.537 1947.44 182.021 1902.71 C 222.553 1784.07 309.177 1686.77 422.327 1632.78 C 415.874 1610.07 410.045 1582.52 404.654 1559.23 C 390.653 1499.57 379.889 1439.2 372.41 1378.38 C 351.483 1202.81 374.036 1049.04 471.61 899.097 C 569.398 748.824 718.268 652.257 891.057 612.594 C 892.004 598.271 891.277 573.56 891.309 558.567 C 891.811 556.242 892.255 552.673 892.63 550.225 L 893.651 549.541 C 907.933 552.539 934.61 562.905 949.179 568.147 C 974.189 577.049 999.267 585.76 1024.41 594.281 C 1040.19 590.131 1058.94 582.904 1074.68 577.453 C 1102.87 567.808 1131 558.008 1159.08 548.054 C 1168.2 544.909 1256.46 514.91 1256.89 514.995 L 1257.79 519.031 C 1258.15 514.903 1257.45 515.632 1259.66 513.04 C 1265.32 512.063 1265.28 512.655 1268.62 509.116 z" fill="rgb(242,238,254)" transform="translate(0,0)"></path>
<path d="M 1024.41 594.281 C 1040.19 590.131 1058.94 582.904 1074.68 577.453 C 1102.87 567.808 1131 558.008 1159.08 548.054 C 1159.07 568.685 1158.39 593.639 1159.09 613.921 C 1159.76 673.093 1084.32 705.175 1034.61 706.926 C 976.583 708.97 893.433 681.251 891.057 612.594 C 892.004 598.271 891.277 573.56 891.309 558.567 C 891.811 556.242 892.255 552.673 892.63 550.225 L 893.651 549.541 C 907.933 552.539 934.61 562.905 949.179 568.147 C 974.189 577.049 999.267 585.76 1024.41 594.281 z" fill="rgb(29,26,28)" transform="translate(0,0)"></path>
<path d="M 1159.08 548.054 C 1168.2 544.909 1256.46 514.91 1256.89 514.995 L 1257.79 519.031 C 1257.28 550.497 1257.71 584.691 1258.15 616.273 C 1246.37 621.821 1244.25 625.289 1242.49 638.185 C 1230.26 630.058 1174.92 616.333 1159.09 613.921 C 1158.39 593.639 1159.07 568.685 1159.08 548.054 z" fill="rgb(124,58,237)" transform="translate(0,0)"></path>
<path d="M 1268.62 509.116 C 1264.95 539.466 1269.45 586.809 1269.4 617.874 C 1269.39 621.164 1289.97 624.167 1277.62 649.482 L 1270.09 654.568 C 1271.27 665.032 1274.12 677.027 1276.15 687.496 C 1279.28 704.524 1282.58 721.521 1286.05 738.484 C 1269.33 738.605 1252.61 738.641 1235.89 738.592 C 1242.31 710.517 1248.58 682.405 1254.69 654.259 C 1253.6 653.667 1252.54 653.049 1251.48 652.404 C 1244.83 648.276 1244.13 645.571 1242.49 638.185 C 1244.25 625.289 1246.37 621.821 1258.15 616.273 C 1257.71 584.691 1257.28 550.497 1257.79 519.031 C 1258.15 514.903 1257.45 515.632 1259.66 513.04 C 1265.32 512.063 1265.28 512.655 1268.62 509.116 z" fill="rgb(29,26,28)" transform="translate(0,0)"></path>
<path d="M 1291.65 962.9 C 1418.82 960.424 1523.9 1061.52 1526.35 1188.68 C 1528.8 1315.85 1427.68 1420.91 1300.51 1423.33 C 1173.39 1425.75 1068.36 1324.67 1065.92 1197.54 C 1063.47 1070.42 1164.53 965.375 1291.65 962.9 z" fill="rgb(251,191,36)" transform="translate(0,0)"></path>
<path d="M 1236.26 1045.22 L 1237.02 1045.35 C 1237.63 1047.24 1226.46 1067.64 1225.49 1072.32 C 1211.05 1141.89 1275.29 1177.5 1332.85 1147.76 C 1322.73 1174.97 1309.04 1190.02 1282.98 1202.26 C 1233.23 1220.42 1181.41 1198.73 1169.03 1145.25 C 1163.9 1123.93 1167.54 1101.45 1179.14 1082.85 C 1192.82 1061.15 1211.94 1050.69 1236.26 1045.22 z" fill="rgb(242,238,254)" transform="translate(0,0)"></path>
<path d="M 743.748 963.262 C 870.641 957.355 978.321 1055.38 984.33 1182.27 C 990.338 1309.15 892.402 1416.91 765.519 1423.02 C 638.492 1429.14 530.583 1331.07 524.568 1204.04 C 518.552 1077 616.711 969.175 743.748 963.262 z" fill="rgb(251,191,36)" transform="translate(0,0)"></path>
<path d="M 696.318 1045.17 L 697.568 1045.33 C 697.883 1047.2 690.131 1062.17 688.711 1065.44 C 681.845 1081.59 681.736 1099.81 688.41 1116.04 C 695.41 1133.37 709.12 1147.13 726.422 1154.19 C 750.595 1164.11 770.356 1157.98 793.088 1148.62 C 782.685 1175.92 768.174 1191.39 741.806 1203.42 C 715.528 1211.46 690.17 1211.47 665.982 1196.85 C 647.503 1185.7 634.202 1167.68 629.001 1146.73 C 623.937 1124.9 627.707 1101.95 639.489 1082.89 C 652.457 1062.17 672.969 1050.45 696.318 1045.17 z" fill="rgb(242,238,254)" transform="translate(0,0)"></path>
<path d="M 945.985 1381.48 C 965.391 1381.59 1107.49 1380.32 1113.38 1383.69 C 1116.86 1385.69 1119.57 1389.09 1120.51 1393.02 C 1121.28 1396.27 1120.58 1398.87 1119.31 1401.88 C 1111.19 1421.15 1098.53 1439.47 1087.89 1457.54 C 1077.84 1474.64 1068.6 1492.23 1058.77 1509.46 C 1052.89 1519.05 1037.76 1553.14 1027.69 1555.43 C 1024.7 1556.11 1020.65 1555.67 1018.03 1553.89 C 1013.31 1550.66 930.024 1404.2 929.243 1396.4 C 928.964 1393.61 930.469 1390.27 932.195 1388.17 C 935.821 1383.76 940.494 1382.1 945.985 1381.48 z" fill="rgb(251,191,36)" transform="translate(0,0)"></path>
<path d="M 1025.75 428.035 C 1048.35 436.901 1072.47 443.474 1095.36 451.445 C 1151.81 471.104 1212.69 488.396 1268.62 509.116 C 1265.28 512.655 1265.32 512.063 1259.66 513.04 C 1257.45 515.632 1258.15 514.903 1257.79 519.031 L 1256.89 514.995 C 1256.46 514.91 1168.2 544.909 1159.08 548.054 C 1131 558.008 1102.87 567.808 1074.68 577.453 C 1058.94 582.904 1040.19 590.131 1024.41 594.281 C 999.267 585.76 974.189 577.049 949.179 568.147 C 934.61 562.905 907.933 552.539 893.651 549.541 L 892.63 550.225 C 892.255 552.673 891.811 556.242 891.309 558.567 C 891.308 556.288 891.465 549.958 890.56 549.543 C 870.665 540.419 796.134 515.114 779.782 510.819 C 816.497 497.197 855.333 485.173 892.456 472.461 C 936.779 457.283 981.084 442.171 1025.75 428.035 z" fill="rgb(50,47,48)" transform="translate(0,0)"></path>
<metadata><recraft-signature>{"signed_by": "recraft", "signature_b64": "MxE2BltX1pBf9oxwZZcE+4YmK6YfbckszGGWOqhIS93X+qrgHoZ11+K+P9gVWzIIHJb1tVD6ocMGKkGOiFtMDw==", "signing_algo": "Ed25519", "generation_timestamp": 1783632311, "identifier": "dfd7e228-9a16-4428-b340-d8bc37678a52"}</recraft-signature></metadata></svg>