<svg xmlns="http://www.w3.org/2000/svg" height="1024" preserveAspectRatio="none" style="display: block;" version="1.1" viewBox="0 0 2048 2048" width="1024">
<defs>
	<linearGradient gradientUnits="userSpaceOnUse" id="Gradient1" x1="1016.03" x2="1667.05" y1="1160.36" y2="515.347">
		<stop class="stop0" offset="0" stop-color="rgb(0,0,0)" stop-opacity="1"></stop>
		<stop class="stop1" offset="1" stop-color="rgb(28,30,51)" stop-opacity="1"></stop>
	</linearGradient>
	<linearGradient gradientUnits="userSpaceOnUse" id="Gradient2" x1="405.296" x2="576.172" y1="1154.5" y2="1180.95">
		<stop class="stop0" offset="0" stop-color="rgb(0,0,1)" stop-opacity="1"></stop>
		<stop class="stop1" offset="1" stop-color="rgb(22,12,23)" stop-opacity="1"></stop>
	</linearGradient>
</defs>
<path d="M 0 0 L 2048 0 L 2048 2048 L 1817.32 2048 L 1651.88 2048 L 719.6 2048 L 370.458 2048 L 0 2048 L 0 0 z" fill="rgb(147,51,234)" transform="translate(0,0)"></path>
<path d="M 892.266 419.656 C 1040.74 375.166 1183.22 391.494 1323.25 458.185 C 1587.23 583.913 1745.7 898.746 1725.7 1186.61 C 1725.43 1189.96 1724.56 1204.13 1723.29 1206.7 L 1722.55 1214.7 C 1698.03 1353.53 1623.55 1454.05 1497.84 1519.79 C 1478.1 1530.11 1458.01 1538.35 1437.7 1547.39 C 1430.2 1549.13 1417.11 1554.29 1409.37 1556.92 C 1395.2 1561.61 1380.96 1566.11 1366.66 1570.4 C 1346.96 1574.17 1328.58 1580.02 1309.02 1584.03 C 1266.22 1592.8 1222.88 1598.74 1179.3 1601.82 C 1004.9 1615.14 791.155 1601.21 638.216 1510.46 C 604.585 1490.51 583.428 1473.5 554.209 1448.39 L 553.964 1450.09 C 551.029 1448.8 542.928 1439.53 538.654 1436.04 L 537.076 1436.49 C 522.278 1425.43 483.477 1369.71 473.765 1351.48 C 416.601 1244.15 412.388 1113.46 429.277 995.509 C 433.486 966.115 439.875 931.089 448.494 902.784 C 449.989 901.414 451.506 900.069 453.045 898.748 C 453.249 898.155 453.453 897.562 453.657 896.969 C 459.781 876.28 466.786 855.863 474.652 835.772 L 481.11 819.253 C 528.645 826.293 566.117 821.205 607.85 797.856 C 688.773 752.582 730.998 652.515 703.993 563.356 C 700.869 553.041 697.552 542.045 692.427 532.796 L 704.257 522.909 C 768.202 474.312 815.653 445.72 892.266 419.656 z" fill="rgb(242,238,254)" transform="translate(0,0)"></path>
<path d="M 1495.2 1151.51 C 1377.1 1161.54 1281.76 1053.47 1309.12 938.044 C 1319.8 891.7 1348.55 851.54 1388.97 826.482 C 1428.82 802.443 1476.56 795.146 1521.77 806.185 C 1566.8 817.857 1605.38 846.85 1629.13 886.848 C 1665 946.985 1662.77 1017.88 1624 1076.13 C 1606.44 1102.5 1585.63 1117.8 1558.9 1133.52 C 1541.49 1140.98 1526.34 1147.98 1507.46 1149.97 C 1504.91 1150.24 1497.16 1151 1495.2 1151.51 z" fill="rgb(30,26,53)" transform="translate(0,0)"></path>
<path d="M 1447.2 864.13 C 1506.07 859.449 1557.6 903.335 1562.36 962.199 C 1567.12 1021.06 1523.3 1072.66 1464.45 1077.5 C 1405.48 1082.34 1353.77 1038.42 1349 979.449 C 1344.23 920.475 1388.22 868.821 1447.2 864.13 z" fill="rgb(242,238,254)" transform="translate(0,0)"></path>
<path d="M 1432.4 915.143 C 1465.36 910.303 1495.99 933.158 1500.74 966.138 C 1505.48 999.118 1482.54 1029.68 1449.54 1034.33 C 1416.69 1038.96 1386.27 1016.13 1381.55 983.286 C 1376.82 950.44 1399.57 919.963 1432.4 915.143 z" fill="rgb(30,26,53)" transform="translate(0,0)"></path>
<path d="M 1495.2 1151.51 C 1497.16 1151 1504.91 1150.24 1507.46 1149.97 C 1526.34 1147.98 1541.49 1140.98 1558.9 1133.52 C 1563.52 1135.37 1586.42 1133.28 1593.13 1133.28 C 1632.6 1133.29 1675.45 1139.86 1707.53 1164.42 C 1714.67 1169.88 1723.16 1185.82 1725.7 1186.61 C 1725.43 1189.96 1724.56 1204.13 1723.29 1206.7 L 1722.55 1214.7 C 1722.47 1213.46 1722.23 1211.93 1722.07 1210.67 L 1720.4 1210.75 C 1677.65 1266.5 1548.66 1265.9 1491.84 1233.68 C 1459.14 1215.14 1450.03 1184.47 1484.26 1160.93 C 1487.66 1158.59 1496.12 1155.46 1497.93 1152.45 L 1495.2 1151.51 z" fill="rgb(244,114,182)" transform="translate(0,0)"></path>
<path d="M 448.494 902.784 C 449.989 901.414 451.506 900.069 453.045 898.748 C 416.077 1045.81 404.839 1227.4 485.792 1362.62 C 498.523 1383.78 513.244 1403.69 529.756 1422.06 C 532.365 1424.96 553.092 1446.81 554.209 1448.39 L 553.964 1450.09 C 551.029 1448.8 542.928 1439.53 538.654 1436.04 L 537.076 1436.49 C 522.278 1425.43 483.477 1369.71 473.765 1351.48 C 416.601 1244.15 412.388 1113.46 429.277 995.509 C 433.486 966.115 439.875 931.089 448.494 902.784 z" fill="url(#Gradient2)" transform="translate(0,0)"></path>
<path d="M 868.663 777.006 C 990.197 768.194 1095.86 859.587 1104.64 981.123 C 1113.43 1102.66 1022.01 1208.3 900.477 1217.06 C 778.975 1225.82 673.372 1134.44 664.588 1012.94 C 655.804 891.438 747.165 785.815 868.663 777.006 z" fill="rgb(30,26,53)" transform="translate(0,0)"></path>
<path d="M 911.555 864.838 C 983.18 857.64 1047.07 909.9 1054.21 981.531 C 1061.35 1053.16 1009.04 1117.01 937.406 1124.1 C 865.847 1131.18 802.084 1078.94 794.949 1007.38 C 787.815 935.829 840.006 872.027 911.555 864.838 z" fill="rgb(242,238,254)" transform="translate(0,0)"></path>
<path d="M 937.216 922.557 C 977.621 915.519 1016.07 942.601 1023.05 983.016 C 1030.03 1023.43 1002.89 1061.84 962.465 1068.76 C 922.123 1075.67 883.81 1048.6 876.844 1008.27 C 869.879 967.933 896.894 929.581 937.216 922.557 z" fill="rgb(30,26,53)" transform="translate(0,0)"></path>
<path d="M 760.216 1216.41 C 806.932 1211.22 870.424 1221.39 909.42 1248.88 C 931.288 1264.29 942.66 1291.94 922.306 1314.24 C 893.137 1346.2 842.497 1356.48 801.247 1359.88 C 751.694 1362.7 689.167 1356.43 649.535 1326.57 C 596.33 1286.48 645.232 1244.18 688.783 1230.43 C 716.829 1221.57 731.857 1218.83 760.216 1216.41 z" fill="rgb(244,114,182)" transform="translate(0,0)"></path>
<path d="M 1262.31 1277.94 C 1250.87 1276.82 1238.74 1273.11 1228.04 1268.01 C 1203.38 1257.69 1151.95 1218.7 1169.28 1186.6 C 1190.94 1151.35 1245.67 1146.97 1281.69 1148.82 C 1319.21 1150.75 1388.35 1166.85 1358.07 1218.43 C 1342.06 1245.69 1311.59 1267.35 1280.99 1275.73 C 1274.12 1277.22 1269.31 1277.45 1262.31 1277.94 z" fill="rgb(30,26,53)" transform="translate(0,0)"></path>
<path d="M 1280.99 1275.73 C 1287.43 1283.43 1291.21 1294.3 1296.22 1303.36 C 1307.13 1322.66 1326.76 1335.44 1348.83 1337.61 C 1386.45 1341.07 1424.68 1315.08 1439.79 1282.31 C 1447.71 1265.13 1469.72 1275.1 1462.79 1293.09 C 1454.24 1318.12 1431.17 1338.52 1408.56 1351.05 C 1357.3 1378.81 1305.28 1364.39 1273.09 1316.47 C 1262.5 1342.2 1240.33 1362.42 1215.05 1373.54 C 1183.1 1387.62 1146.53 1386.01 1114.63 1372.61 C 1099.01 1366.06 1075.91 1353.95 1068.39 1337.71 C 1063.83 1327.86 1070.57 1322.56 1078.71 1319.12 C 1091.38 1325.16 1097.26 1333.93 1108.06 1340.76 C 1156.05 1371.1 1222.91 1357.28 1250.32 1306.09 C 1255.08 1297.17 1256.8 1286.7 1262.31 1277.94 C 1269.31 1277.45 1274.12 1277.22 1280.99 1275.73 z" fill="rgb(244,114,182)" transform="translate(0,0)"></path>
<path d="M 537.076 1436.49 L 538.654 1436.04 C 542.928 1439.53 551.029 1448.8 553.964 1450.09 L 554.209 1448.39 C 583.428 1473.5 604.585 1490.51 638.216 1510.46 C 791.155 1601.21 1004.9 1615.14 1179.3 1601.82 C 1222.88 1598.74 1266.22 1592.8 1309.02 1584.03 C 1328.58 1580.02 1346.96 1574.17 1366.66 1570.4 C 1380.96 1566.11 1395.2 1561.61 1409.37 1556.92 C 1417.11 1554.29 1430.2 1549.13 1437.7 1547.39 L 1436.99 1549.12 C 1428.93 1552.29 1420.82 1555.35 1412.67 1558.31 C 1414.78 1559.06 1426.15 1553.08 1432.23 1553.57 C 1420.82 1559.3 1383.3 1570.51 1370.77 1572.7 L 1372.32 1573.69 C 1380.54 1578.86 1391.29 1582.24 1399.84 1587.42 C 1557.36 1682.84 1681.26 1828.94 1778.61 1983.38 C 1791.71 2004.15 1806.25 2026.62 1817.32 2048 L 1651.88 2048 L 719.6 2048 C 700.159 1975.61 684.982 1924.5 656.763 1854.2 C 650.938 1839.85 644.519 1825.75 637.522 1811.94 C 621.169 1779.84 621.583 1783.17 618.346 1748.72 C 614.82 1711.18 595.431 1641.37 550.06 1636.57 C 544.055 1635.94 532.623 1638.46 526.34 1636.37 L 524.998 1632.77 C 531.647 1630.22 544.932 1628.85 551.715 1629.72 C 606.117 1636.69 623.743 1711.81 627.537 1757.04 C 628.16 1764.46 628.871 1772.98 630.278 1779.8 C 652.1 1732.28 732.597 1654.04 773.649 1619.25 C 784.983 1609.64 805.419 1594.71 817.998 1584.93 C 731.68 1568.21 593.131 1506.2 537.076 1436.49 z" fill="rgb(242,238,254)" transform="translate(0,0)"></path>
<path d="M 537.076 1436.49 L 538.654 1436.04 C 542.928 1439.53 551.029 1448.8 553.964 1450.09 L 554.209 1448.39 C 583.428 1473.5 604.585 1490.51 638.216 1510.46 C 791.155 1601.21 1004.9 1615.14 1179.3 1601.82 C 1222.88 1598.74 1266.22 1592.8 1309.02 1584.03 C 1328.58 1580.02 1346.96 1574.17 1366.66 1570.4 C 1380.96 1566.11 1395.2 1561.61 1409.37 1556.92 C 1417.11 1554.29 1430.2 1549.13 1437.7 1547.39 L 1436.99 1549.12 C 1428.93 1552.29 1420.82 1555.35 1412.67 1558.31 C 1414.78 1559.06 1426.15 1553.08 1432.23 1553.57 C 1420.82 1559.3 1383.3 1570.51 1370.77 1572.7 L 1372.32 1573.69 C 1380.54 1578.86 1391.29 1582.24 1399.84 1587.42 C 1557.36 1682.84 1681.26 1828.94 1778.61 1983.38 C 1791.71 2004.15 1806.25 2026.62 1817.32 2048 L 1651.88 2048 C 1629.26 1973.34 1587.59 1880.25 1550.28 1811.7 C 1505.99 1731.18 1453.08 1655.67 1381.06 1597.45 C 1374.87 1592.44 1354.03 1573.59 1346.18 1579.04 C 1346.11 1581.57 1359.24 1591.32 1361.92 1593.33 C 1426.1 1641.49 1472.76 1701.2 1515.07 1768.73 C 1510.01 1766 1504.87 1763.4 1499.68 1760.93 C 1362.64 1697.4 1183.42 1692.58 1041.59 1744.1 C 903.802 1794.15 785.431 1893.74 723.585 2028.17 C 718.307 2014.65 713.53 1988.46 708.346 1972.86 C 686.549 1907.25 664.565 1840.07 630.278 1779.8 C 652.1 1732.28 732.597 1654.04 773.649 1619.25 C 784.983 1609.64 805.419 1594.71 817.998 1584.93 C 731.68 1568.21 593.131 1506.2 537.076 1436.49 z" fill="rgb(30,26,53)" transform="translate(0,0)"></path>
<path d="M 450.19 1556.21 C 440.514 1545.79 433.696 1537.61 432.218 1522.54 C 430.836 1507.46 435.763 1492.48 445.827 1481.17 C 455.094 1470.85 468.123 1464.69 481.982 1464.07 C 511.757 1462.96 535.151 1484.76 535.77 1514.59 C 536.158 1533.26 528.409 1544.24 516.162 1556.92 C 528.125 1556.7 541.038 1558.42 542.31 1574.51 C 542.963 1582.77 537.596 1589.19 532.051 1594.86 C 525.637 1594.8 522.37 1594.7 516.012 1595.66 C 519.211 1605.79 523.067 1622.3 524.998 1632.77 L 526.34 1636.37 C 532.623 1638.46 544.055 1635.94 550.06 1636.57 C 595.431 1641.37 614.82 1711.18 618.346 1748.72 C 621.583 1783.17 621.169 1779.84 637.522 1811.94 C 644.519 1825.75 650.938 1839.85 656.763 1854.2 C 684.982 1924.5 700.159 1975.61 719.6 2048 L 370.458 2048 C 364.828 2035.39 357.942 2015.62 353.488 2002.25 C 329.816 1931.86 312.036 1862.38 311.47 1787.67 C 310.83 1703.24 350.29 1614.18 446.625 1615.06 C 447.904 1608.45 449.076 1601.83 450.14 1595.19 C 437.871 1594.84 424.954 1591.51 424.395 1576.63 C 424.171 1571.39 426.127 1566.29 429.796 1562.55 C 436.312 1555.84 441.67 1556.25 450.19 1556.21 z" fill="rgb(30,26,53)" transform="translate(0,0)"></path>
<path d="M 461.069 1558.35 C 421.475 1533.5 431.593 1477.54 474.64 1469.37 C 487.319 1467.08 500.389 1469.93 510.963 1477.29 C 521.487 1484.47 528.554 1495.7 530.473 1508.29 C 534.828 1536.48 519.44 1553.43 493.985 1562.14 C 504.07 1561.39 537.453 1557.22 538.53 1574.42 C 538.75 1577.95 535.387 1584.39 533.062 1587.08 C 520.718 1591.29 446.418 1592.27 435.408 1586.53 C 432.182 1584.84 429.106 1582.1 428.2 1578.44 C 427.199 1574.39 429.212 1570.06 431.595 1566.87 C 433.899 1563.79 437.034 1561.82 440.873 1561.32 C 444.475 1560.84 448.345 1561.1 451.974 1561.17 C 457.006 1561.74 464.098 1561.94 469.305 1562.24 C 466.578 1560.91 463.832 1559.61 461.069 1558.35 z" fill="rgb(242,238,254)" transform="translate(0,0)"></path>
<path d="M 454.551 1595.36 C 473.528 1594.92 492.512 1594.81 511.493 1595.02 L 515.412 1609.99 C 519.463 1631.09 529.14 1673.29 536.163 1693.56 C 542.045 1693.96 548.693 1693.96 552.871 1698.82 C 555.339 1701.69 556.801 1704.6 556.337 1708.46 C 555.949 1711.69 553.474 1715.17 550.662 1716.69 C 543.95 1720.31 460.652 1717.83 447.484 1718.06 C 470.754 1694.71 485.579 1656.28 463.687 1626.42 C 461.2 1623.02 451.561 1618.65 450.114 1615.96 C 451.699 1609.32 453.108 1602.08 454.551 1595.36 z" fill="rgb(242,238,254)" transform="translate(0,0)"></path>
<path d="M 443.051 1723.2 C 455.443 1723.18 556.795 1720.76 562.392 1725.36 C 564.923 1727.45 566.104 1730.56 566.333 1733.75 C 566.608 1737.59 565.909 1741.2 563.118 1744.03 C 557.44 1749.79 547.577 1748.22 540.25 1748.1 C 522.983 1748.17 428.827 1749.26 418.681 1745.59 C 416.789 1743.17 415.907 1742.6 415.535 1739.6 C 422.834 1733.48 434.466 1729.73 443.051 1723.2 z" fill="rgb(242,238,254)" transform="translate(0,0)"></path>
<path d="M 700.893 520.582 C 706.011 516.009 716.26 508.588 721.963 504.222 C 771.171 466.77 826.214 437.681 884.88 418.126 L 892.266 419.656 C 815.653 445.72 768.202 474.312 704.257 522.909 L 692.427 532.796 C 697.552 542.045 700.869 553.041 703.993 563.356 C 730.998 652.515 688.773 752.582 607.85 797.856 C 566.117 821.205 528.645 826.293 481.11 819.253 L 474.652 835.772 L 471.159 831.746 C 471.983 828.666 474.834 821.719 476.066 818.44 C 466.961 816.031 456.889 813.482 448.228 809.985 C 399.099 790.144 358.361 749.542 339.351 699.966 C 322.214 655.274 323.507 598.123 341.206 553.889 C 361.452 504.408 400.334 464.866 449.468 443.791 C 494.079 424.788 550.257 422.958 595.639 440.843 C 633.108 455.61 674.838 491.486 690.55 529.344 C 693.62 526.123 696.981 522.635 700.893 520.582 z" fill="rgb(30,26,53)" transform="translate(0,0)"></path>
<path d="M 884.88 418.126 C 1031.19 367.502 1193.59 388.794 1330.42 456.555 C 1340.38 461.487 1350.46 466.59 1360.02 472.26 C 1365.36 466.261 1370.11 461.434 1376.45 456.445 C 1451.43 397.395 1553.01 404.37 1622.72 467.679 C 1660.85 502.909 1683.44 551.82 1685.56 603.685 C 1687.61 650.27 1663.19 711.354 1625.98 740.331 C 1644.95 779.829 1667.11 820.602 1681.74 862.487 C 1726.94 991.873 1755.01 1155.6 1709.32 1287.88 C 1670.8 1399.41 1587.28 1483.7 1481.7 1532.28 C 1471.08 1537.17 1442.99 1551.08 1432.23 1553.57 C 1426.15 1553.08 1414.78 1559.06 1412.67 1558.31 C 1420.82 1555.35 1428.93 1552.29 1436.99 1549.12 L 1437.7 1547.39 C 1458.01 1538.35 1478.1 1530.11 1497.84 1519.79 C 1623.55 1454.05 1698.03 1353.53 1722.55 1214.7 L 1723.29 1206.7 C 1724.56 1204.13 1725.43 1189.96 1725.7 1186.61 C 1745.7 898.746 1587.23 583.913 1323.25 458.185 C 1183.22 391.494 1040.74 375.166 892.266 419.656 L 884.88 418.126 z" fill="url(#Gradient1)" transform="translate(0,0)"></path>
<path d="M 471.159 831.746 L 474.652 835.772 C 466.786 855.863 459.781 876.28 453.657 896.969 C 453.453 897.562 453.249 898.155 453.045 898.748 C 451.506 900.069 449.989 901.414 448.494 902.784 C 453.18 880.929 463.678 852.992 471.159 831.746 z" fill="rgb(1,0,2)" transform="translate(0,0)"></path>
<metadata><recraft-signature>{"signed_by": "recraft", "signature_b64": "x4C1sYkNA67HUsKMM/yCXIsZzPzOPmCQmaM66BNtWKtw1xsjnGhoifEDp8AmOPY0MyUIuaPlu0TWZC8fO6D8Cg==", "signing_algo": "Ed25519", "generation_timestamp": 1783632359, "identifier": "de3b5bcf-778c-4992-940b-1afd04f96421"}</recraft-signature></metadata></svg>