<svg xmlns="http://www.w3.org/2000/svg" height="1024" preserveAspectRatio="none" style="display: block;" version="1.1" viewBox="0 0 2048 2048" width="1024">
<path d="M 0 0 L 2048 0 L 2048 2048 L 1303.86 2048 L 743.075 2048 L 0 2048 L 0 0 z" fill="rgb(79,70,229)" transform="translate(0,0)"></path>
<path d="M 1005.9 185.709 C 975.926 176.258 959.865 141.816 970.517 112.538 C 975.954 97.7974 987.216 85.9427 1001.66 79.7565 C 1015.96 73.4968 1030.87 73.4206 1045.34 79.2556 C 1060.01 85.0728 1071.65 96.6468 1077.55 111.279 C 1090.45 142.582 1072.14 173.878 1042.79 186.668 C 1042.69 193.145 1042.88 206.395 1042.16 212.328 C 1043.49 284.427 1042.35 360.524 1042.18 432.881 C 1207.02 437.347 1363.47 506.53 1477.69 625.462 C 1571.87 723.658 1630.25 850.706 1643.41 986.13 C 1647.86 1029.61 1647.15 1065.92 1647.2 1109.67 C 1698.18 1110.26 1740.14 1125.98 1776.36 1162.82 C 1797.73 1184.8 1812.94 1212.02 1820.45 1241.73 C 1828.19 1272.75 1826.04 1325.55 1826.07 1359.4 C 1826.36 1392.22 1826.43 1425.04 1826.31 1457.87 C 1824.92 1562.74 1749.67 1639.43 1643.89 1638.01 C 1640.16 1654.03 1636.91 1668.89 1631.24 1684.4 C 1612.53 1734.54 1577.55 1776.96 1531.9 1804.87 C 1466.45 1845.54 1406.26 1841.58 1332.97 1840.89 C 1289.55 1840.48 1245.51 1841.73 1202.11 1840.66 L 1202.01 1908.16 C 1167.23 1901.44 1110.84 1904.14 1073.24 1903.73 C 1030.39 1903.04 987.531 1902.89 944.677 1903.28 C 908.214 1903.45 886.592 1901.65 850.027 1907.41 L 850.247 1840.97 C 826.589 1841.05 798.569 1841.77 775.213 1840.83 C 747.387 1841.32 718.275 1840.41 690.873 1840.97 C 627.099 1842.27 569.863 1840.58 514.062 1804.04 C 448.723 1761.26 420.747 1712.06 404.55 1637.98 L 402.389 1638.01 C 298.277 1639.07 221.315 1560.9 220.918 1457.33 L 220.899 1348.83 C 220.8 1275.18 214.851 1221.34 272.349 1161.99 C 307.132 1126.09 351.3 1109.97 400.991 1110.04 C 400.949 1086.42 400.705 1062.59 400.964 1039 C 402.631 886.966 466.002 730.32 573.216 621.763 C 668.318 524.708 792.215 460.953 926.47 439.985 C 952.672 435.96 979.326 433.022 1005.86 432.886 L 1005.9 185.709 z" fill="rgb(242,238,254)" transform="translate(0,0)"></path>
<path d="M 775.213 1840.83 C 784.64 1839.75 806.144 1840.2 816.331 1840.15 L 910.732 1840.55 C 1007.06 1840.99 1105.93 1841.89 1202.11 1840.66 L 1202.01 1908.16 C 1167.23 1901.44 1110.84 1904.14 1073.24 1903.73 C 1030.39 1903.04 987.531 1902.89 944.677 1903.28 C 908.214 1903.45 886.592 1901.65 850.027 1907.41 L 850.247 1840.97 C 826.589 1841.05 798.569 1841.77 775.213 1840.83 z" fill="rgb(167,139,250)" transform="translate(0,0)"></path>
<path d="M 734.322 983.152 C 865.705 975.1 978.744 1075.07 986.817 1206.45 C 994.89 1337.83 894.939 1450.89 763.559 1458.98 C 632.148 1467.08 519.062 1367.1 510.987 1235.69 C 502.913 1104.28 602.909 991.206 734.322 983.152 z" fill="rgb(52,211,153)" transform="translate(0,0)"></path>
<path d="M 1292.85 982.97 C 1424.51 979.315 1534.16 1083.17 1537.67 1214.83 C 1541.17 1346.5 1437.19 1456.03 1305.52 1459.39 C 1174.07 1462.73 1064.75 1358.96 1061.25 1227.51 C 1057.75 1096.06 1161.4 986.618 1292.85 982.97 z" fill="rgb(52,211,153)" transform="translate(0,0)"></path>
<path d="M 1422.05 1486.62 C 1492.06 1481.82 1552.78 1534.53 1557.88 1604.52 C 1562.98 1674.51 1510.54 1735.46 1440.57 1740.86 C 1370.17 1746.3 1308.76 1693.47 1303.63 1623.04 C 1298.5 1552.62 1351.6 1491.44 1422.05 1486.62 z" fill="rgb(52,211,153)" transform="translate(0,0)"></path>
<path d="M 610.052 1486.91 C 680.167 1482.62 740.481 1535.99 744.753 1606.11 C 749.024 1676.22 695.636 1736.52 625.518 1740.78 C 555.428 1745.03 495.158 1691.66 490.888 1621.57 C 486.618 1551.49 539.964 1491.2 610.052 1486.91 z" fill="rgb(52,211,153)" transform="translate(0,0)"></path>
<path d="M 913.24 1500.87 C 932.558 1503.08 926.287 1514.86 930.598 1529.77 C 934.418 1542.77 940.917 1554.82 949.678 1565.15 C 985.509 1607.1 1048.36 1611.06 1089.73 1574.85 C 1105 1561.49 1119.13 1539.38 1121.44 1518.46 C 1122.06 1512.82 1121.19 1506.81 1126.56 1503.05 C 1131.72 1499.45 1140.7 1500.06 1144.26 1505.61 C 1148.71 1513.27 1145.59 1524.86 1144.16 1533.06 C 1135.91 1565.3 1117.35 1589.91 1088.62 1606.94 C 1059.79 1623.97 1025.34 1628.77 992.951 1620.26 C 949.851 1609.05 912.091 1574.85 904.857 1529.55 C 902.611 1515.49 898.387 1508.2 913.24 1500.87 z" fill="rgb(33,30,35)" transform="translate(0,0)"></path>
<path d="M 850.027 1907.41 C 886.592 1901.65 908.214 1903.45 944.677 1903.28 C 987.531 1902.89 1030.39 1903.04 1073.24 1903.73 C 1110.84 1904.14 1167.23 1901.44 1202.01 1908.16 C 1238.36 1918.62 1269.03 1943.18 1287.2 1976.37 C 1299.87 1999.5 1303.44 2022.12 1303.86 2048 L 743.075 2048 C 742.342 2019.35 750.235 1991.15 765.729 1967.05 C 784.502 1937.73 815.926 1915.02 850.027 1907.41 z" fill="rgb(242,238,254)" transform="translate(0,0)"></path>
<metadata><recraft-signature>{"signed_by": "recraft", "signature_b64": "XNV1LOljHVKgPBqywnwCNVkUPnElqNAM3w12qVTo5zV+Yu38OEpG130RUlQOjmxZGivWeyNeYvMN9js+J77SCQ==", "signing_algo": "Ed25519", "generation_timestamp": 1783632329, "identifier": "a45d45ab-9658-425a-9d41-36f685c6032b"}</recraft-signature></metadata></svg>