<svg xmlns="http://www.w3.org/2000/svg" height="1024" preserveAspectRatio="none" style="display: block;" version="1.1" viewBox="0 0 2048 2048" width="1024">
<path d="M 0 0 L 2048 0 L 2048 2048 L 1883.37 2048 L 164.106 2048 L 0 2048 L 0 0 z" fill="rgb(251,1,64)" transform="translate(0,0)"></path>
<path d="M 795.678 564.615 C 931.046 525.731 1112.98 527.986 1248.55 563.689 C 1291.13 574.524 1332.77 588.741 1373.08 606.206 C 1471.61 654.417 1553.04 710.95 1625.44 794.476 C 1655.02 830.329 1689.27 876.852 1709.99 918.617 C 1729.34 959.118 1743.21 992.757 1753.47 1037.02 C 1789.67 1185.81 1763.34 1336.2 1683.68 1466.41 C 1676.8 1477.41 1669.6 1488.21 1662.09 1498.8 C 1658.46 1503.85 1639.62 1527.77 1638.26 1531.5 C 1677.9 1558.49 1702.86 1593.67 1712.15 1641.2 C 1718.3 1672.62 1715.38 1712.27 1700.25 1740.89 C 1769.83 1752.95 1817.9 1780.76 1859.44 1839.58 C 1892.64 1886.58 1905.86 1944.82 1896.22 2001.55 C 1892.93 2020.47 1888.89 2030.61 1883.37 2048 L 164.106 2048 C 159.423 2034.36 154.531 2013.9 152.425 2000.07 C 143.705 1940.79 159.038 1880.48 195.014 1832.56 C 233.438 1780.4 285.093 1750.52 348.667 1740.65 C 322.105 1686.45 333.935 1610.81 372.77 1566.29 C 383.483 1554.01 396.461 1539.93 411.013 1532.28 C 392.547 1506.26 375.61 1484.98 358.774 1457.52 C 282.586 1331.02 259.713 1179.46 295.178 1036.11 C 305.906 991.485 319.896 959.075 338.85 918.051 C 360.57 875.798 392.157 830.411 422.899 794.214 C 492.786 714.339 578.858 650.236 675.406 606.159 C 718.434 589.414 750.37 576.184 795.678 564.615 z" fill="rgb(242,238,254)" transform="translate(0,0)"></path>
<path d="M 1638.26 1531.5 C 1677.9 1558.49 1702.86 1593.67 1712.15 1641.2 C 1718.3 1672.62 1715.38 1712.27 1700.25 1740.89 C 1769.83 1752.95 1817.9 1780.76 1859.44 1839.58 C 1892.64 1886.58 1905.86 1944.82 1896.22 2001.55 C 1892.93 2020.47 1888.89 2030.61 1883.37 2048 L 164.106 2048 C 159.423 2034.36 154.531 2013.9 152.425 2000.07 C 143.705 1940.79 159.038 1880.48 195.014 1832.56 C 233.438 1780.4 285.093 1750.52 348.667 1740.65 C 322.105 1686.45 333.935 1610.81 372.77 1566.29 C 383.483 1554.01 396.461 1539.93 411.013 1532.28 C 417.662 1540.88 427.846 1551.51 435.32 1559.65 C 463.15 1590.15 493.233 1618.53 525.315 1644.53 C 684.845 1773.89 905.282 1829.57 1108.29 1809.51 C 1312.16 1789.37 1508.12 1691.73 1638.26 1531.5 z" fill="rgb(242,238,254)" transform="translate(0,0)"></path>
<path d="M 411.013 1532.28 C 392.547 1506.26 375.61 1484.98 358.774 1457.52 C 282.586 1331.02 259.713 1179.46 295.178 1036.11 C 295.869 1039.1 298.316 1042.28 299.523 1045.58 C 355.198 1197.69 462.877 1319.91 600.886 1405.93 C 779.892 1518.35 996.272 1554.91 1202.28 1507.56 C 1398.63 1461.96 1582.68 1339.61 1689.74 1167.34 C 1707.06 1139.49 1722.15 1110.33 1734.89 1080.11 C 1738.63 1071.2 1748.53 1042.09 1753.47 1037.02 C 1789.67 1185.81 1763.34 1336.2 1683.68 1466.41 C 1676.8 1477.41 1669.6 1488.21 1662.09 1498.8 C 1658.46 1503.85 1639.62 1527.77 1638.26 1531.5 C 1508.12 1691.73 1312.16 1789.37 1108.29 1809.51 C 905.282 1829.57 684.845 1773.89 525.315 1644.53 C 493.233 1618.53 463.15 1590.15 435.32 1559.65 C 427.846 1551.51 417.662 1540.88 411.013 1532.28 z" fill="rgb(252,170,139)" transform="translate(0,0)"></path>
<path d="M 1426.62 750.54 C 1539.22 738.475 1640.29 819.959 1652.39 932.558 C 1664.48 1045.16 1583.02 1146.25 1470.43 1158.37 C 1357.79 1170.49 1256.66 1089 1244.56 976.362 C 1232.46 863.723 1313.98 762.61 1426.62 750.54 z" fill="rgb(30,26,53)" transform="translate(0,0)"></path>
<path d="M 1497.03 793.868 C 1544.01 789.836 1585.35 824.681 1589.34 871.667 C 1593.32 918.652 1558.43 959.96 1511.44 963.896 C 1464.52 967.827 1423.29 933.002 1419.31 886.083 C 1415.33 839.164 1450.11 797.893 1497.03 793.868 z" fill="rgb(242,238,254)" transform="translate(0,0)"></path>
<path d="M 588.284 751.104 C 700.917 744.47 797.613 830.375 804.289 943.006 C 810.965 1055.64 725.095 1152.36 612.467 1159.08 C 499.78 1165.8 402.992 1079.88 396.313 967.188 C 389.633 854.5 475.593 757.743 588.284 751.104 z" fill="rgb(30,26,53)" transform="translate(0,0)"></path>
<path d="M 646.509 793.798 C 693.664 789.147 735.609 823.727 740.038 870.903 C 744.466 918.079 709.689 959.861 662.493 964.068 C 615.61 968.247 574.165 933.75 569.765 886.887 C 565.366 840.024 599.667 798.417 646.509 793.798 z" fill="rgb(242,238,254)" transform="translate(0,0)"></path>
<path d="M 1009.88 1108.87 C 963.671 1102.28 912.788 1084.91 883.091 1046.86 C 861.223 1018.85 886.29 1006.29 909.605 995.955 C 960.308 973.471 1020.02 967.724 1074.56 976.739 C 1105.81 983.434 1147.14 992.788 1170.68 1015.86 C 1173.39 1018.52 1174.94 1027.51 1173.68 1030.83 C 1157.63 1072.95 1104.15 1095.08 1063.39 1104.75 C 1055.14 1106.7 1044.81 1106.64 1038.17 1109.05 C 1028.97 1109.42 1019.14 1109.05 1009.88 1108.87 z" fill="rgb(251,191,36)" transform="translate(0,0)"></path>
<path d="M 1009.88 1108.87 C 1019.14 1109.05 1028.97 1109.42 1038.17 1109.05 C 1042.8 1131.94 1046.9 1147.3 1061.16 1166.83 C 1080.16 1192.86 1108.8 1210.19 1140.67 1214.95 C 1192.56 1222.54 1246.21 1196.35 1271.14 1148.26 C 1275.98 1138.93 1279.33 1128.58 1292.32 1130.97 C 1296.74 1131.81 1300.66 1134.35 1303.23 1138.04 C 1318.39 1160.17 1260.24 1215.14 1242.28 1225.87 C 1208.06 1246.32 1164.8 1253.98 1126 1244.75 C 1079.09 1233.59 1048.15 1207.43 1023.17 1167.59 C 1018.22 1174.68 1013.38 1181.85 1008.28 1188.87 C 947.546 1272.46 818.232 1266.17 761.694 1181.2 C 755.99 1172.62 743.263 1156.4 745.458 1145.62 C 746.39 1141.13 749.206 1137.27 753.187 1135 C 770.832 1124.77 778.607 1146.73 785.28 1157.95 C 832.117 1236.75 948.09 1234.48 992.382 1154.32 C 1001.46 1137.88 1004.94 1126.83 1009.88 1108.87 z" fill="rgb(30,26,53)" transform="translate(0,0)"></path>
<path d="M 338.85 918.051 C 338.738 918.001 338.626 917.95 338.514 917.899 C 254.009 870.407 196.569 772.652 192.365 676.786 C 190.139 626.002 201.984 573.712 222.543 530.161 C 258.613 455.587 322.583 398.204 400.625 370.419 C 476.705 343.947 560.126 348.306 633.033 382.565 C 693.656 411.77 743.279 458.44 776.197 517.499 C 784.132 531.736 790.292 549.149 795.678 564.615 C 750.37 576.184 718.434 589.414 675.406 606.159 C 578.858 650.236 492.786 714.339 422.899 794.214 C 392.157 830.411 360.57 875.798 338.85 918.051 z" fill="rgb(251,191,36)" transform="translate(0,0)"></path>
<path d="M 422.899 794.214 C 401.654 770.28 391.601 726.563 393.279 695.25 C 395.297 653.056 414.322 613.479 446.013 585.549 C 478.549 557.164 521.137 543.063 564.184 546.422 C 611.83 549.85 645.035 571.334 675.406 606.159 C 578.858 650.236 492.786 714.339 422.899 794.214 z" fill="rgb(30,26,53)" transform="translate(0,0)"></path>
<path d="M 1248.55 563.689 C 1275.37 484.925 1332.83 420.311 1407.92 384.472 C 1481.5 348.772 1566.2 343.545 1643.62 369.925 C 1721.92 396.71 1786.33 453.563 1822.64 527.926 C 1857.53 600.956 1862.43 684.75 1836.28 761.348 C 1812.71 828.208 1768.66 879.951 1709.99 918.617 C 1689.27 876.852 1655.02 830.329 1625.44 794.476 C 1553.04 710.95 1471.61 654.417 1373.08 606.206 C 1332.77 588.741 1291.13 574.524 1248.55 563.689 z" fill="rgb(251,191,36)" transform="translate(0,0)"></path>
<path d="M 1373.08 606.206 C 1394.89 574.816 1432.84 554.815 1469.93 548.214 C 1511.17 540.818 1553.66 550.032 1588.14 573.846 C 1623.17 598.028 1646.86 635.424 1653.75 677.433 C 1660.72 717.49 1651.26 758.668 1627.49 791.657 C 1626.81 792.6 1626.13 793.54 1625.44 794.476 C 1553.04 710.95 1471.61 654.417 1373.08 606.206 z" fill="rgb(30,26,53)" transform="translate(0,0)"></path>
<path d="M 1024.46 166.723 C 1027.42 169.97 1037.16 189.87 1039.95 194.889 C 1067.06 243.73 1092.24 293.837 1119.26 342.703 C 1161.85 309.15 1203.33 275.114 1246.41 242.155 C 1224.52 323.117 1205.09 404.774 1181.94 485.778 C 1130 476.665 1077.41 471.806 1024.68 471.249 C 971.682 471.337 918.816 476.505 866.806 486.683 C 843.334 407.131 825.372 321.437 802.831 241.407 C 811.909 249.281 822.011 257.034 831.476 264.502 C 864.507 290.563 897.132 317.923 930.972 342.869 C 950.369 307.822 967.846 271.361 987.468 236.376 C 1000.29 213.52 1011.42 189.477 1024.46 166.723 z" fill="rgb(251,191,36)" transform="translate(0,0)"></path>
<metadata><recraft-signature>{"signed_by": "recraft", "signature_b64": "CyosqJujJeLvSCLiW9gGxlk5PWzBm8l6IMWTwL5+prZhk6ya7GGrXnjwIfRZcrLf//NraF8eZi1YC+bxq8P4AQ==", "signing_algo": "Ed25519", "generation_timestamp": 1783632321, "identifier": "538ce6eb-0317-49e6-a62e-3b28b3cb434a"}</recraft-signature></metadata></svg>